<?xml version="1.0" encoding="UTF-8" standalone="no"?>
<!-- Created with Inkscape (http://www.inkscape.org/) -->

<svg
   xmlns:dc="http://purl.org/dc/elements/1.1/"
   xmlns:cc="http://creativecommons.org/ns#"
   xmlns:rdf="http://www.w3.org/1999/02/22-rdf-syntax-ns#"
   xmlns:svg="http://www.w3.org/2000/svg"
   xmlns="http://www.w3.org/2000/svg"
   xmlns:xlink="http://www.w3.org/1999/xlink"
   xmlns:sodipodi="http://sodipodi.sourceforge.net/DTD/sodipodi-0.dtd"
   xmlns:inkscape="http://www.inkscape.org/namespaces/inkscape"
   width="48"
   height="48"
   id="svg5157"
   sodipodi:version="0.32"
   inkscape:version="0.48.4 r9939"
   version="1.0"
   sodipodi:docname="application-exit.svg"
   inkscape:output_extension="org.inkscape.output.svg.inkscape">
  <defs
     id="defs5159">
    <linearGradient
       inkscape:collect="always"
       id="linearGradient3173">
      <stop
         style="stop-color:#4d4d4d;stop-opacity:1;"
         offset="0"
         id="stop3175" />
      <stop
         style="stop-color:#4d4d4d;stop-opacity:0;"
         offset="1"
         id="stop3177" />
    </linearGradient>
    <linearGradient
       inkscape:collect="always"
       id="linearGradient3203">
      <stop
         style="stop-color:#4d4d4d;stop-opacity:1;"
         offset="0"
         id="stop3205" />
      <stop
         style="stop-color:#4d4d4d;stop-opacity:0;"
         offset="1"
         id="stop3207" />
    </linearGradient>
    <linearGradient
       inkscape:collect="always"
       id="linearGradient3195">
      <stop
         style="stop-color:#4d4d4d;stop-opacity:1;"
         offset="0"
         id="stop3197" />
      <stop
         style="stop-color:#4d4d4d;stop-opacity:0;"
         offset="1"
         id="stop3199" />
    </linearGradient>
    <linearGradient
       inkscape:collect="always"
       xlink:href="#linearGradient3195"
       id="linearGradient3201"
       x1="32.414055"
       y1="7.75"
       x2="32.434135"
       y2="40.614853"
       gradientUnits="userSpaceOnUse" />
    <linearGradient
       inkscape:collect="always"
       xlink:href="#linearGradient3203"
       id="linearGradient3209"
       x1="32.569359"
       y1="5.3041172"
       x2="32.623116"
       y2="40.747845"
       gradientUnits="userSpaceOnUse" />
    <linearGradient
       inkscape:collect="always"
       xlink:href="#linearGradient3173"
       id="linearGradient3179"
       x1="31.749998"
       y1="4.5625019"
       x2="31.749998"
       y2="33.087414"
       gradientUnits="userSpaceOnUse" />
  </defs>
  <sodipodi:namedview
     id="base"
     pagecolor="#ffffff"
     bordercolor="#666666"
     borderopacity="1.0"
     gridtolerance="10000"
     guidetolerance="10"
     objecttolerance="10"
     inkscape:pageopacity="0.0"
     inkscape:pageshadow="2"
     inkscape:zoom="5.6568545"
     inkscape:cx="6.2087927"
     inkscape:cy="34.926417"
     inkscape:document-units="px"
     inkscape:current-layer="layer2"
     width="48px"
     height="48px"
     inkscape:window-width="872"
     inkscape:window-height="680"
     inkscape:window-x="146"
     inkscape:window-y="44"
     showborder="false"
     inkscape:showpageshadow="false"
     showgrid="false"
     showguides="true"
     inkscape:guide-bbox="true"
     inkscape:grid-points="true"
     inkscape:window-maximized="0">
    <inkscape:grid
       id="GridFromPre046Settings"
       type="xygrid"
       originx="0px"
       originy="0px"
       spacingx="0.5px"
       spacingy="0.5px"
       color="#0000ff"
       empcolor="#0000ff"
       opacity="0.2"
       empopacity="0.4"
       empspacing="2"
       visible="true"
       enabled="true"
       snapvisiblegridlinesonly="true" />
  </sodipodi:namedview>
  <metadata
     id="metadata5162">
    <rdf:RDF>
      <cc:Work
         rdf:about="">
        <dc:format>image/svg+xml</dc:format>
        <dc:type
           rdf:resource="http://purl.org/dc/dcmitype/StillImage" />
        <dc:title />
        <dc:date>2007-08-27</dc:date>
        <dc:creator>
          <cc:Agent>
            <dc:title>Lapo Calamandrei</dc:title>
          </cc:Agent>
        </dc:creator>
        <dc:source />
        <cc:license
           rdf:resource="http://creativecommons.org/licenses/GPL/2.0/" />
        <dc:contributor>
          <cc:Agent>
            <dc:title>Kalle Persson</dc:title>
          </cc:Agent>
        </dc:contributor>
        <dc:subject>
          <rdf:Bag>
            <rdf:li>logout</rdf:li>
            <rdf:li>exit</rdf:li>
            <rdf:li>man</rdf:li>
            <rdf:li>sign</rdf:li>
            <rdf:li>running</rdf:li>
          </rdf:Bag>
        </dc:subject>
      </cc:Work>
      <cc:License
         rdf:about="http://creativecommons.org/licenses/GPL/2.0/">
        <cc:permits
           rdf:resource="http://web.resource.org/cc/Reproduction" />
        <cc:permits
           rdf:resource="http://web.resource.org/cc/Distribution" />
        <cc:requires
           rdf:resource="http://web.resource.org/cc/Notice" />
        <cc:permits
           rdf:resource="http://web.resource.org/cc/DerivativeWorks" />
        <cc:requires
           rdf:resource="http://web.resource.org/cc/ShareAlike" />
        <cc:requires
           rdf:resource="http://web.resource.org/cc/SourceCode" />
      </cc:License>
    </rdf:RDF>
  </metadata>
  <g
     inkscape:label="shadow"
     inkscape:groupmode="layer"
     id="layer1"
     style="display:inline">
    <g
       id="g6227"
       transform="matrix(0.6759778,0,0,0.8422279,-72.059226,25.879981)"
       style="opacity:0.33000004" />
  </g>
  <g
     inkscape:groupmode="layer"
     id="layer2"
     inkscape:label="omino">
    <path
       id="path5955"
       d="M 32.5,5.5 C 30.292,5.5 28.5,7.292 28.5,9.5 C 28.5,11.708 30.292,13.5 32.5,13.5 C 34.708,13.5 36.5,11.708 36.5,9.5 C 36.5,7.292 34.708,5.5 32.5,5.5 z M 19.3125,11.5 C 18.771272,11.552698 18.274828,11.823486 17.9375,12.25 L 13.9375,17.25 C 13.247144,18.112945 13.387055,19.372144 14.25,20.0625 C 15.112945,20.752856 16.372144,20.612945 17.0625,19.75 L 20.46875,15.5 L 24.25,15.5 L 17.8125,23.3125 C 17.579055,23.645583 17.49315,24.06221 17.5,24.5 L 17.5,31.5 L 9.5,31.5 L 9.5,35.5 L 19.5,35.5 C 20.604524,35.49989 21.49989,34.604524 21.5,33.5 L 21.5,27.3125 L 26.5,32.3125 L 26.5,40.5 L 30.5,40.5 L 30.5,31.5 L 30.5,30.65625 L 29.90625,30.09375 L 25.15625,25.34375 L 28.5,21.28125 L 28.5,22.5 C 28.50011,23.604524 29.395476,24.49989 30.5,24.5 L 37.5,24.5 C 38.221272,24.510201 38.886387,24.122995 39.25,23.5 C 39.613613,22.877006 39.613613,22.122995 39.25,21.5 C 38.886387,20.877004 38.221272,20.489799 37.5,20.5 L 32.5,20.5 L 32.5,16 C 29.609362,16 27.156396,14.110886 26.3125,11.5 L 19.5,11.5 C 19.437534,11.497069 19.374966,11.497069 19.3125,11.5 z"
       style="opacity:0.14999999999999999;fill:#ffffff;stroke:#ffffff;stroke-width:2;stroke-linecap:round;stroke-linejoin:round;stroke-miterlimit:4;stroke-opacity:1;stroke-dasharray:none;display:inline;fill-opacity:1" />
    <path
       inkscape:connector-curvature="0"
       id="path5955-0"
       d="m 32.5,5.5 c -2.208,0 -4,1.792 -4,4 0,2.208 1.792,4 4,4 2.208,0 4,-1.792 4,-4 0,-2.208 -1.792,-4 -4,-4 z m -13.1875,6 c -0.541228,0.0527 -1.037672,0.323486 -1.375,0.75 l -4,5 c -0.690356,0.862945 -0.550445,2.122144 0.3125,2.8125 0.862945,0.690356 2.122144,0.550445 2.8125,-0.3125 l 3.40625,-4.25 3.78125,0 -6.4375,7.8125 C 17.579055,23.645583 17.49315,24.06221 17.5,24.5 l 0,7 -8,0 0,4 10,0 c 1.104524,-1.1e-4 1.99989,-0.895476 2,-2 l 0,-6.1875 5,5 0,8.1875 4,0 0,-9 0,-0.84375 -0.59375,-0.5625 -4.75,-4.75 3.34375,-4.0625 0,1.21875 c 1.1e-4,1.104524 0.895476,1.99989 2,2 l 7,0 c 0.721272,0.0102 1.386387,-0.377005 1.75,-1 0.363613,-0.622994 0.363613,-1.377005 0,-2 -0.363613,-0.622996 -1.028728,-1.010201 -1.75,-1 l -5,0 0,-4.5 c -2.890638,0 -5.343604,-1.889114 -6.1875,-4.5 l -6.8125,0 c -0.06247,-0.0029 -0.125034,-0.0029 -0.1875,0 z"
       style="opacity:0.80;fill:#000000;fill-opacity:1;fill-rule:evenodd;stroke:none;stroke-width:0.33333001000000001;stroke-linecap:round;stroke-linejoin:round;stroke-miterlimit:4;stroke-opacity:1;stroke-dasharray:none;display:inline" />
  </g>
</svg>
