<?xml version="1.0" encoding="UTF-8" standalone="no"?>
<!-- Created with Inkscape (http://www.inkscape.org/) -->

<svg
   xmlns:dc="http://purl.org/dc/elements/1.1/"
   xmlns:cc="http://creativecommons.org/ns#"
   xmlns:rdf="http://www.w3.org/1999/02/22-rdf-syntax-ns#"
   xmlns:svg="http://www.w3.org/2000/svg"
   xmlns="http://www.w3.org/2000/svg"
   xmlns:xlink="http://www.w3.org/1999/xlink"
   xmlns:sodipodi="http://sodipodi.sourceforge.net/DTD/sodipodi-0.dtd"
   xmlns:inkscape="http://www.inkscape.org/namespaces/inkscape"
   version="1.0"
   width="48"
   height="48"
   id="svg2"
   inkscape:version="0.48.4 r9939"
   sodipodi:docname="emblem-downloads.svg">
  <sodipodi:namedview
     pagecolor="#ffffff"
     bordercolor="#666666"
     borderopacity="1"
     objecttolerance="10"
     gridtolerance="10"
     guidetolerance="10"
     inkscape:pageopacity="0"
     inkscape:pageshadow="2"
     inkscape:window-width="781"
     inkscape:window-height="480"
     id="namedview50"
     showgrid="true"
     inkscape:zoom="5.1666667"
     inkscape:cx="24"
     inkscape:cy="24"
     inkscape:window-x="237"
     inkscape:window-y="238"
     inkscape:window-maximized="0"
     inkscape:current-layer="svg2">
    <inkscape:grid
       type="xygrid"
       id="grid3022"
       empspacing="6"
       visible="true"
       enabled="true"
       snapvisiblegridlinesonly="true"
       spacingx="6px"
       spacingy="6px" />
  </sodipodi:namedview>
  <defs
     id="defs4">
    <linearGradient
       id="linearGradient3810">
      <stop
         style="stop-color:#ffffff;stop-opacity:1;"
         offset="0"
         id="stop3812" />
      <stop
         style="stop-color:#ffffff;stop-opacity:0.58823532;"
         offset="1"
         id="stop3814" />
    </linearGradient>
    <linearGradient
       id="linearGradient3796">
      <stop
         style="stop-color:#ffffff;stop-opacity:1;"
         offset="0"
         id="stop3798" />
      <stop
         style="stop-color:#ffffff;stop-opacity:0.6;"
         offset="1"
         id="stop3800" />
    </linearGradient>
    <linearGradient
       x1="11.640054"
       y1="4.0775533"
       x2="11.640054"
       y2="17.924156"
       id="linearGradient3972"
       gradientUnits="userSpaceOnUse">
      <stop
         id="stop3974"
         style="stop-color:#323232;stop-opacity:1"
         offset="0" />
      <stop
         id="stop3976"
         style="stop-color:#787878;stop-opacity:1"
         offset="1" />
    </linearGradient>
    <linearGradient
       x1="11.640054"
       y1="4.0775533"
       x2="11.640054"
       y2="17.924156"
       id="linearGradient2862"
       xlink:href="#linearGradient3972"
       gradientUnits="userSpaceOnUse"
       gradientTransform="matrix(4,0,0,4,4,-70)" />
    <clipPath
       id="clipPath3647">
      <path
         d="m -100,-74 0,96 96,0 0,-96 -96,0 z m 39.875,20.3125 16.125,0 0,19.75 19.6875,0 0,16.1875 -19.6875,0 0,19.4375 -16.125,0 0,-19.4375 -19.5625,0 0,-16.1875 19.5625,0 0,-19.75 z"
         inkscape:connector-curvature="0"
         id="path3649"
         style="opacity:0.3;color:#000000;fill:#ff0000;fill-opacity:1;fill-rule:nonzero;stroke:none;stroke-width:4;marker:none;visibility:visible;display:inline;overflow:visible;enable-background:accumulate" />
    </clipPath>
    <filter
       color-interpolation-filters="sRGB"
       id="filter3651">
      <feGaussianBlur
         id="feGaussianBlur3653"
         stdDeviation="0.83069354" />
    </filter>
    <clipPath
       id="clipPath3266">
      <path
         d="M 0,0 0,96 96,96 96,0 0,0 z m 12,6 72,0 c 3.324,0 6,2.676 6,6 l 0,72 c 0,3.324 -2.676,6 -6,6 L 12,90 C 8.676,90 6,87.324 6,84 L 6,12 C 6,8.676 8.676,6 12,6 z"
         inkscape:connector-curvature="0"
         id="path3268"
         style="opacity:0.3;color:#000000;fill:#ff0000;fill-opacity:1;fill-rule:nonzero;stroke:none;stroke-width:4;marker:none;visibility:visible;display:inline;overflow:visible;enable-background:accumulate" />
    </clipPath>
    <linearGradient
       x1="32.251034"
       y1="6.1317081"
       x2="32.251034"
       y2="90.238609"
       id="linearGradient3101"
       xlink:href="#ButtonShadow-0"
       gradientUnits="userSpaceOnUse"
       gradientTransform="matrix(1.0238095,0,0,1.0119048,-1.1428571,-98.071429)" />
    <linearGradient
       x1="45.447727"
       y1="92.539597"
       x2="45.447727"
       y2="7.0165396"
       id="ButtonShadow-0"
       gradientUnits="userSpaceOnUse"
       gradientTransform="matrix(1.0058652,0,0,0.994169,100,0)">
      <stop
         id="stop3750-8"
         style="stop-color:#000000;stop-opacity:1"
         offset="0" />
      <stop
         id="stop3752-5"
         style="stop-color:#000000;stop-opacity:0.58823532"
         offset="1" />
    </linearGradient>
    <linearGradient
       x1="32.251034"
       y1="6.1317081"
       x2="32.251034"
       y2="90.238609"
       id="linearGradient3780"
       xlink:href="#ButtonShadow-0"
       gradientUnits="userSpaceOnUse"
       gradientTransform="matrix(1.0238095,0,0,1.0119048,-1.1428571,-98.071429)" />
    <linearGradient
       x1="32.251034"
       y1="6.1317081"
       x2="32.251034"
       y2="90.238609"
       id="linearGradient3772"
       xlink:href="#ButtonShadow-0"
       gradientUnits="userSpaceOnUse"
       gradientTransform="matrix(1.0238095,0,0,1.0119048,-1.1428571,-98.071429)" />
    <linearGradient
       x1="32.251034"
       y1="6.1317081"
       x2="32.251034"
       y2="90.238609"
       id="linearGradient3725"
       xlink:href="#ButtonShadow-0"
       gradientUnits="userSpaceOnUse"
       gradientTransform="matrix(1.0238095,0,0,1.0119048,-1.1428571,-98.071429)" />
    <linearGradient
       x1="48"
       y1="90"
       x2="48"
       y2="5.9877172"
       id="linearGradient3052"
       xlink:href="#ButtonColor-6"
       gradientUnits="userSpaceOnUse" />
    <linearGradient
       x1="10.31979"
       y1="21"
       x2="10.31979"
       y2="0.99929649"
       id="ButtonColor-6"
       gradientUnits="userSpaceOnUse">
      <stop
         id="stop3189-4"
         style="stop-color:#c8c8c8;stop-opacity:1"
         offset="0" />
      <stop
         id="stop3191-0"
         style="stop-color:#e6e6e6;stop-opacity:1"
         offset="1" />
    </linearGradient>
    <linearGradient
       x1="36.357143"
       y1="6"
       x2="36.357143"
       y2="63.893143"
       id="linearGradient3188"
       xlink:href="#linearGradient3737"
       gradientUnits="userSpaceOnUse" />
    <linearGradient
       id="linearGradient3737">
      <stop
         id="stop3739"
         style="stop-color:#ffffff;stop-opacity:1"
         offset="0" />
      <stop
         id="stop3741"
         style="stop-color:#ffffff;stop-opacity:0"
         offset="1" />
    </linearGradient>
    <radialGradient
       cx="48"
       cy="90.171875"
       r="42"
       fx="48"
       fy="90.171875"
       id="radialGradient3619"
       xlink:href="#linearGradient3737"
       gradientUnits="userSpaceOnUse"
       gradientTransform="matrix(1.1573129,0,0,0.99590774,-7.551021,0.1971319)" />
    <linearGradient
       x1="32.251034"
       y1="6.1317081"
       x2="32.251034"
       y2="90.238609"
       id="linearGradient4256"
       xlink:href="#ButtonShadow-0"
       gradientUnits="userSpaceOnUse"
       gradientTransform="translate(0,-97)" />
    <linearGradient
       inkscape:collect="always"
       xlink:href="#linearGradient3972"
       id="linearGradient3027"
       gradientUnits="userSpaceOnUse"
       gradientTransform="matrix(4,0,0,4,4,-70)"
       x1="11.640054"
       y1="4.0775533"
       x2="11.640054"
       y2="17.924156" />
    <radialGradient
       inkscape:collect="always"
       xlink:href="#linearGradient3887"
       id="radialGradient3893"
       cx="63.457626"
       cy="58.983051"
       fx="63.457626"
       fy="58.983051"
       r="45.966103"
       gradientUnits="userSpaceOnUse" />
    <linearGradient
       id="linearGradient3887">
      <stop
         style="stop-color:#fafafa;stop-opacity:1;"
         offset="0"
         id="stop3889" />
      <stop
         style="stop-color:#dcdcdc;stop-opacity:0.19685039;"
         offset="1"
         id="stop3891" />
    </linearGradient>
    <radialGradient
       r="45.966103"
       fy="58.983051"
       fx="63.457626"
       cy="58.983051"
       cx="63.457626"
       gradientUnits="userSpaceOnUse"
       id="radialGradient3961"
       xlink:href="#linearGradient3887"
       inkscape:collect="always" />
    <radialGradient
       inkscape:collect="always"
       xlink:href="#linearGradient3887-5"
       id="radialGradient4065"
       cx="48"
       cy="48"
       fx="48"
       fy="48"
       r="47.796612"
       gradientTransform="matrix(1,0,0,1.0085107,0,-0.40851121)"
       gradientUnits="userSpaceOnUse" />
    <linearGradient
       id="linearGradient3887-5">
      <stop
         style="stop-color:#fafafa;stop-opacity:1;"
         offset="0"
         id="stop3889-4" />
      <stop
         style="stop-color:#dcdcdc;stop-opacity:0.19685039;"
         offset="1"
         id="stop3891-9" />
    </linearGradient>
    <radialGradient
       r="47.796612"
       fy="48"
       fx="48"
       cy="48"
       cx="48"
       gradientTransform="matrix(1,0,0,1.0085107,0,-0.40851118)"
       gradientUnits="userSpaceOnUse"
       id="radialGradient4446"
       xlink:href="#linearGradient3887-5"
       inkscape:collect="always" />
    <radialGradient
       inkscape:collect="always"
       xlink:href="#linearGradient3796"
       id="radialGradient3802"
       cx="18"
       cy="12"
       fx="18"
       fy="12"
       r="36"
       gradientUnits="userSpaceOnUse" />
    <radialGradient
       inkscape:collect="always"
       xlink:href="#linearGradient3810"
       id="radialGradient3816"
       cx="54"
       cy="48"
       fx="54"
       fy="48"
       r="36"
       gradientUnits="userSpaceOnUse" />
    <clipPath
       id="clipPath2986">
      <path
         d="m -100,-74 0,96 96,0 0,-96 -96,0 z m 48,16 c 17.673112,0 32,14.326888 32,32 0,17.673112 -14.326888,32 -32,32 -17.673112,0 -32,-14.326888 -32,-32 0,-17.673112 14.326888,-32 32,-32 z m 0,8 c -13.254834,0 -24,10.745166 -24,24 0,13.254832 10.745166,24 24,24 13.254832,0 24,-10.745168 24,-24 0,-13.254834 -10.745168,-24 -24,-24 z m 0,4 c 2.216,0 4,1.784 4,4 l 0,9 7.875,-4.5 c 1.919112,-1.108 4.392,-0.419112 5.5,1.5 1.108,1.919112 0.419112,4.392 -1.5,5.5 l -7.75,4.5 7.75,4.5 c 1.919112,1.108 2.608,3.580888 1.5,5.5 -1.108,1.919112 -3.580888,2.608 -5.5,1.5 L -48,-19 l 0,9 c 0,2.216 -1.784,4 -4,4 -2.216,0 -4,-1.784 -4,-4 l 0,-9 -7.875,4.5 c -1.919112,1.108 -4.392,0.419112 -5.5,-1.5 -1.108,-1.919112 -0.419112,-4.392 1.5,-5.5 l 7.75,-4.5 -7.75,-4.5 c -1.919112,-1.108 -2.608,-3.580888 -1.5,-5.5 1.108,-1.919112 3.580888,-2.608 5.5,-1.5 l 7.875,4.5 0,-9 c 0,-2.216 1.784,-4 4,-4 z"
         inkscape:connector-curvature="0"
         id="path2988"
         style="opacity:0.3;color:#000000;fill:#ff0000;fill-opacity:1;fill-rule:nonzero;stroke:none;stroke-width:4;marker:none;visibility:visible;display:inline;overflow:visible;enable-background:accumulate" />
    </clipPath>
    <filter
       color-interpolation-filters="sRGB"
       id="filter3762">
      <feGaussianBlur
         id="feGaussianBlur3764"
         stdDeviation="0.96" />
    </filter>
    <filter
       color-interpolation-filters="sRGB"
       id="filter3986">
      <feGaussianBlur
         id="feGaussianBlur3988"
         stdDeviation="0.87773437" />
    </filter>
  </defs>
  <metadata
     id="metadata7">
    <rdf:RDF>
      <cc:Work
         rdf:about="">
        <dc:format>image/svg+xml</dc:format>
        <dc:type
           rdf:resource="http://purl.org/dc/dcmitype/StillImage" />
        <dc:title />
      </cc:Work>
    </rdf:RDF>
  </metadata>
  <g
     inkscape:label="Calque 1"
     inkscape:groupmode="layer"
     id="layer1">
    <path
       style="fill:#000000;fill-opacity:1;stroke:none;display:inline"
       id="Symbol"
       inkscape:connector-curvature="0"
       d="m 18.157129,6 0,3.2727273 11.895247,0 0,-3.2727273 z m 0,6.545455 0,6.545454 11.895247,0 0,-6.545454 z m 0,9.818181 L 17.955515,28.85362 12.000001,28.712617 24.104753,42 36,28.909091 l -5.947624,0 0,-6.545455 z"
       sodipodi:nodetypes="cccccccccccccccccc" />
  </g>
</svg>
