<?xml version="1.0" encoding="UTF-8" standalone="no"?>
<!-- Created with Inkscape (http://www.inkscape.org/) -->

<svg
   xmlns:dc="http://purl.org/dc/elements/1.1/"
   xmlns:cc="http://creativecommons.org/ns#"
   xmlns:rdf="http://www.w3.org/1999/02/22-rdf-syntax-ns#"
   xmlns:svg="http://www.w3.org/2000/svg"
   xmlns="http://www.w3.org/2000/svg"
   xmlns:xlink="http://www.w3.org/1999/xlink"
   xmlns:sodipodi="http://sodipodi.sourceforge.net/DTD/sodipodi-0.dtd"
   xmlns:inkscape="http://www.inkscape.org/namespaces/inkscape"
   version="1.0"
   width="48"
   height="48"
   id="svg2"
   inkscape:version="0.48.4 r9939"
   sodipodi:docname="emblem-people.svg"
   inkscape:export-filename="/home/cedric/.icons/Tango-colors-test/16x16/emblems/emblem-default.png"
   inkscape:export-xdpi="15"
   inkscape:export-ydpi="15">
  <sodipodi:namedview
     pagecolor="#ffffff"
     bordercolor="#666666"
     borderopacity="1"
     objecttolerance="10"
     gridtolerance="10"
     guidetolerance="10"
     inkscape:pageopacity="0"
     inkscape:pageshadow="2"
     inkscape:window-width="781"
     inkscape:window-height="480"
     id="namedview50"
     showgrid="true"
     inkscape:zoom="5.1666667"
     inkscape:cx="24.372303"
     inkscape:cy="24"
     inkscape:window-x="237"
     inkscape:window-y="82"
     inkscape:window-maximized="0"
     inkscape:current-layer="svg2">
    <inkscape:grid
       type="xygrid"
       id="grid3022"
       empspacing="6"
       visible="true"
       enabled="true"
       snapvisiblegridlinesonly="true"
       spacingx="6px"
       spacingy="6px" />
  </sodipodi:namedview>
  <defs
     id="defs4">
    <linearGradient
       id="linearGradient3810">
      <stop
         style="stop-color:#ffffff;stop-opacity:1;"
         offset="0"
         id="stop3812" />
      <stop
         style="stop-color:#ffffff;stop-opacity:0.58823532;"
         offset="1"
         id="stop3814" />
    </linearGradient>
    <linearGradient
       id="linearGradient3796">
      <stop
         style="stop-color:#ffffff;stop-opacity:1;"
         offset="0"
         id="stop3798" />
      <stop
         style="stop-color:#ffffff;stop-opacity:0.6;"
         offset="1"
         id="stop3800" />
    </linearGradient>
    <linearGradient
       x1="11.640054"
       y1="4.0775533"
       x2="11.640054"
       y2="17.924156"
       id="linearGradient3972"
       gradientUnits="userSpaceOnUse">
      <stop
         id="stop3974"
         style="stop-color:#323232;stop-opacity:1"
         offset="0" />
      <stop
         id="stop3976"
         style="stop-color:#787878;stop-opacity:1"
         offset="1" />
    </linearGradient>
    <linearGradient
       x1="11.640054"
       y1="4.0775533"
       x2="11.640054"
       y2="17.924156"
       id="linearGradient2862"
       xlink:href="#linearGradient3972"
       gradientUnits="userSpaceOnUse"
       gradientTransform="matrix(4,0,0,4,4,-70)" />
    <clipPath
       id="clipPath3647">
      <path
         d="m -100,-74 0,96 96,0 0,-96 -96,0 z m 39.875,20.3125 16.125,0 0,19.75 19.6875,0 0,16.1875 -19.6875,0 0,19.4375 -16.125,0 0,-19.4375 -19.5625,0 0,-16.1875 19.5625,0 0,-19.75 z"
         inkscape:connector-curvature="0"
         id="path3649"
         style="opacity:0.3;color:#000000;fill:#ff0000;fill-opacity:1;fill-rule:nonzero;stroke:none;stroke-width:4;marker:none;visibility:visible;display:inline;overflow:visible;enable-background:accumulate" />
    </clipPath>
    <filter
       color-interpolation-filters="sRGB"
       id="filter3651">
      <feGaussianBlur
         id="feGaussianBlur3653"
         stdDeviation="0.83069354" />
    </filter>
    <clipPath
       id="clipPath3266">
      <path
         d="M 0,0 0,96 96,96 96,0 0,0 z m 12,6 72,0 c 3.324,0 6,2.676 6,6 l 0,72 c 0,3.324 -2.676,6 -6,6 L 12,90 C 8.676,90 6,87.324 6,84 L 6,12 C 6,8.676 8.676,6 12,6 z"
         inkscape:connector-curvature="0"
         id="path3268"
         style="opacity:0.3;color:#000000;fill:#ff0000;fill-opacity:1;fill-rule:nonzero;stroke:none;stroke-width:4;marker:none;visibility:visible;display:inline;overflow:visible;enable-background:accumulate" />
    </clipPath>
    <linearGradient
       x1="32.251034"
       y1="6.1317081"
       x2="32.251034"
       y2="90.238609"
       id="linearGradient3101"
       xlink:href="#ButtonShadow-0"
       gradientUnits="userSpaceOnUse"
       gradientTransform="matrix(1.0238095,0,0,1.0119048,-1.1428571,-98.071429)" />
    <linearGradient
       x1="45.447727"
       y1="92.539597"
       x2="45.447727"
       y2="7.0165396"
       id="ButtonShadow-0"
       gradientUnits="userSpaceOnUse"
       gradientTransform="matrix(1.0058652,0,0,0.994169,100,0)">
      <stop
         id="stop3750-8"
         style="stop-color:#000000;stop-opacity:1"
         offset="0" />
      <stop
         id="stop3752-5"
         style="stop-color:#000000;stop-opacity:0.58823532"
         offset="1" />
    </linearGradient>
    <linearGradient
       x1="32.251034"
       y1="6.1317081"
       x2="32.251034"
       y2="90.238609"
       id="linearGradient3780"
       xlink:href="#ButtonShadow-0"
       gradientUnits="userSpaceOnUse"
       gradientTransform="matrix(1.0238095,0,0,1.0119048,-1.1428571,-98.071429)" />
    <linearGradient
       x1="32.251034"
       y1="6.1317081"
       x2="32.251034"
       y2="90.238609"
       id="linearGradient3772"
       xlink:href="#ButtonShadow-0"
       gradientUnits="userSpaceOnUse"
       gradientTransform="matrix(1.0238095,0,0,1.0119048,-1.1428571,-98.071429)" />
    <linearGradient
       x1="32.251034"
       y1="6.1317081"
       x2="32.251034"
       y2="90.238609"
       id="linearGradient3725"
       xlink:href="#ButtonShadow-0"
       gradientUnits="userSpaceOnUse"
       gradientTransform="matrix(1.0238095,0,0,1.0119048,-1.1428571,-98.071429)" />
    <linearGradient
       x1="48"
       y1="90"
       x2="48"
       y2="5.9877172"
       id="linearGradient3052"
       xlink:href="#ButtonColor-6"
       gradientUnits="userSpaceOnUse" />
    <linearGradient
       x1="10.31979"
       y1="21"
       x2="10.31979"
       y2="0.99929649"
       id="ButtonColor-6"
       gradientUnits="userSpaceOnUse">
      <stop
         id="stop3189-4"
         style="stop-color:#c8c8c8;stop-opacity:1"
         offset="0" />
      <stop
         id="stop3191-0"
         style="stop-color:#e6e6e6;stop-opacity:1"
         offset="1" />
    </linearGradient>
    <linearGradient
       x1="36.357143"
       y1="6"
       x2="36.357143"
       y2="63.893143"
       id="linearGradient3188"
       xlink:href="#linearGradient3737"
       gradientUnits="userSpaceOnUse" />
    <linearGradient
       id="linearGradient3737">
      <stop
         id="stop3739"
         style="stop-color:#ffffff;stop-opacity:1"
         offset="0" />
      <stop
         id="stop3741"
         style="stop-color:#ffffff;stop-opacity:0"
         offset="1" />
    </linearGradient>
    <radialGradient
       cx="48"
       cy="90.171875"
       r="42"
       fx="48"
       fy="90.171875"
       id="radialGradient3619"
       xlink:href="#linearGradient3737"
       gradientUnits="userSpaceOnUse"
       gradientTransform="matrix(1.1573129,0,0,0.99590774,-7.551021,0.1971319)" />
    <linearGradient
       x1="32.251034"
       y1="6.1317081"
       x2="32.251034"
       y2="90.238609"
       id="linearGradient4256"
       xlink:href="#ButtonShadow-0"
       gradientUnits="userSpaceOnUse"
       gradientTransform="translate(0,-97)" />
    <linearGradient
       inkscape:collect="always"
       xlink:href="#linearGradient3972"
       id="linearGradient3027"
       gradientUnits="userSpaceOnUse"
       gradientTransform="matrix(4,0,0,4,4,-70)"
       x1="11.640054"
       y1="4.0775533"
       x2="11.640054"
       y2="17.924156" />
    <radialGradient
       inkscape:collect="always"
       xlink:href="#linearGradient3887"
       id="radialGradient3893"
       cx="63.457626"
       cy="58.983051"
       fx="63.457626"
       fy="58.983051"
       r="45.966103"
       gradientUnits="userSpaceOnUse" />
    <linearGradient
       id="linearGradient3887">
      <stop
         style="stop-color:#fafafa;stop-opacity:1;"
         offset="0"
         id="stop3889" />
      <stop
         style="stop-color:#dcdcdc;stop-opacity:0.19685039;"
         offset="1"
         id="stop3891" />
    </linearGradient>
    <radialGradient
       r="45.966103"
       fy="58.983051"
       fx="63.457626"
       cy="58.983051"
       cx="63.457626"
       gradientUnits="userSpaceOnUse"
       id="radialGradient3961"
       xlink:href="#linearGradient3887"
       inkscape:collect="always" />
    <radialGradient
       inkscape:collect="always"
       xlink:href="#linearGradient3887-5"
       id="radialGradient4065"
       cx="48"
       cy="48"
       fx="48"
       fy="48"
       r="47.796612"
       gradientTransform="matrix(1,0,0,1.0085107,0,-0.40851121)"
       gradientUnits="userSpaceOnUse" />
    <linearGradient
       id="linearGradient3887-5">
      <stop
         style="stop-color:#fafafa;stop-opacity:1;"
         offset="0"
         id="stop3889-4" />
      <stop
         style="stop-color:#dcdcdc;stop-opacity:0.19685039;"
         offset="1"
         id="stop3891-9" />
    </linearGradient>
    <radialGradient
       r="47.796612"
       fy="48"
       fx="48"
       cy="48"
       cx="48"
       gradientTransform="matrix(1,0,0,1.0085107,0,-0.40851118)"
       gradientUnits="userSpaceOnUse"
       id="radialGradient4446"
       xlink:href="#linearGradient3887-5"
       inkscape:collect="always" />
    <radialGradient
       inkscape:collect="always"
       xlink:href="#linearGradient3796"
       id="radialGradient3802"
       cx="18"
       cy="12"
       fx="18"
       fy="12"
       r="36"
       gradientUnits="userSpaceOnUse" />
    <radialGradient
       inkscape:collect="always"
       xlink:href="#linearGradient3810"
       id="radialGradient3816"
       cx="54"
       cy="48"
       fx="54"
       fy="48"
       r="36"
       gradientUnits="userSpaceOnUse" />
    <clipPath
       id="clipPath2986">
      <path
         d="m -100,-74 0,96 96,0 0,-96 -96,0 z m 48,16 c 17.673112,0 32,14.326888 32,32 0,17.673112 -14.326888,32 -32,32 -17.673112,0 -32,-14.326888 -32,-32 0,-17.673112 14.326888,-32 32,-32 z m 0,8 c -13.254834,0 -24,10.745166 -24,24 0,13.254832 10.745166,24 24,24 13.254832,0 24,-10.745168 24,-24 0,-13.254834 -10.745168,-24 -24,-24 z m 0,4 c 2.216,0 4,1.784 4,4 l 0,9 7.875,-4.5 c 1.919112,-1.108 4.392,-0.419112 5.5,1.5 1.108,1.919112 0.419112,4.392 -1.5,5.5 l -7.75,4.5 7.75,4.5 c 1.919112,1.108 2.608,3.580888 1.5,5.5 -1.108,1.919112 -3.580888,2.608 -5.5,1.5 L -48,-19 l 0,9 c 0,2.216 -1.784,4 -4,4 -2.216,0 -4,-1.784 -4,-4 l 0,-9 -7.875,4.5 c -1.919112,1.108 -4.392,0.419112 -5.5,-1.5 -1.108,-1.919112 -0.419112,-4.392 1.5,-5.5 l 7.75,-4.5 -7.75,-4.5 c -1.919112,-1.108 -2.608,-3.580888 -1.5,-5.5 1.108,-1.919112 3.580888,-2.608 5.5,-1.5 l 7.875,4.5 0,-9 c 0,-2.216 1.784,-4 4,-4 z"
         inkscape:connector-curvature="0"
         id="path2988"
         style="opacity:0.3;color:#000000;fill:#ff0000;fill-opacity:1;fill-rule:nonzero;stroke:none;stroke-width:4;marker:none;visibility:visible;display:inline;overflow:visible;enable-background:accumulate" />
    </clipPath>
    <filter
       color-interpolation-filters="sRGB"
       id="filter3762">
      <feGaussianBlur
         id="feGaussianBlur3764"
         stdDeviation="0.96" />
    </filter>
    <filter
       color-interpolation-filters="sRGB"
       id="filter3986">
      <feGaussianBlur
         id="feGaussianBlur3988"
         stdDeviation="0.87773437" />
    </filter>
  </defs>
  <metadata
     id="metadata7">
    <rdf:RDF>
      <cc:Work
         rdf:about="">
        <dc:format>image/svg+xml</dc:format>
        <dc:type
           rdf:resource="http://purl.org/dc/dcmitype/StillImage" />
        <dc:title />
      </cc:Work>
    </rdf:RDF>
  </metadata>
  <g
     style="display:inline"
     id="g3934"
     transform="matrix(0.69889875,0,0,0.69403428,-9.3396547,-9.3136458)">
    <path
       d="m 57,24 c -7.115551,0 -12.8125,5.35882 -12.8125,12 0.01606,0.7072 0.05752,1.732254 0.125,2.59375 -1.2168,0.51643 -1.314113,2.878904 -0.28125,5.3125 0.409584,0.965047 0.931247,1.700357 1.5,2.3125 0.138193,0.68394 0.110458,0.999513 0.28125,1.78125 0.476599,1.429793 2.358463,4.217792 4.09375,6.53125 0.170158,1.776697 0.346673,3.572512 0,5.59375 -1.789196,1.48442 -4.581986,2.67891 -7.4375,3.78125 -2.683621,-1.114687 -5.975381,-2.269353 -7.75,-3.8125 C 34.585529,58.997761 34.557284,57.891985 34.625,56.8125 35.679152,55.18573 37.114857,53.061686 37.46875,52 c 0.127188,-0.537627 0.150753,-0.912077 0.25,-1.375 0.315877,-0.382624 0.57981,-0.79549 0.8125,-1.34375 0.654149,-1.541277 0.640266,-3.026821 -0.0625,-3.46875 0.04143,-0.621003 0.04426,-1.27609 0.0625,-1.8125 -2e-6,-4.427454 -3.787547,-8 -8.53125,-8 -4.743701,0 -8.53125,3.572546 -8.53125,8 0.01071,0.471466 0.01752,1.144419 0.0625,1.71875 -0.8112,0.344286 -0.844825,1.940103 -0.15625,3.5625 0.273057,0.643365 0.620832,1.123155 1,1.53125 0.09213,0.45596 0.04239,0.666342 0.15625,1.1875 0.317732,0.953195 1.593142,2.832695 2.75,4.375 0.113439,1.184465 0.231115,2.371258 0,3.71875 -3.333414,2.76559 -11.919025,3.949423 -11.90625,6.8125 L 13.1875,68 33.5,68 c -0.904248,0.712414 -1.472685,1.49307 -1.46875,2.375 l -0.25,1.625 50.4375,0 -0.25,-1.625 c -0.02049,-3.675613 -12.936195,-5.955386 -17.875,-10.25 -0.199832,-1.643983 -0.226572,-3.287022 -0.125,-4.90625 1.581227,-2.440155 3.687909,-5.626221 4.21875,-7.21875 0.19078,-0.80644 0.257381,-1.336865 0.40625,-2.03125 0.473816,-0.573936 0.869713,-1.24011 1.21875,-2.0625 0.981222,-2.311916 0.929151,-4.524607 -0.125,-5.1875 C 69.74965,37.787245 69.78513,36.804615 69.8125,36 69.8125,29.35882 64.115556,24 57,24 z"
       inkscape:connector-curvature="0"
       id="path3979"
       style="opacity:0.2;fill:#000000;fill-opacity:1;stroke:#ffffff;stroke-width:4;stroke-miterlimit:4;stroke-dasharray:none;filter:url(#filter3986)" />
    <path
       d="m 30,36 c -4.743701,0 -8.545454,3.572545 -8.545454,7.999999 0.01071,0.471466 0.04593,1.152943 0.09091,1.727274 -0.8112,0.344286 -0.870396,1.923056 -0.181821,3.545453 0.273057,0.643365 0.620832,1.137361 1,1.545456 0.09213,0.45596 0.06796,0.66066 0.181818,1.181818 0.317732,0.953195 1.570415,2.821332 2.727273,4.363637 0.113439,1.184465 0.231115,2.379781 0,3.727273 -3.333414,2.76559 -11.921866,3.955104 -11.909091,6.818181 L 13.181819,68 46.818181,68 46.636356,66.909091 c -0.01366,-2.450409 -8.616548,-3.955105 -11.909085,-6.818181 -0.133221,-1.095989 -0.158616,-2.193243 -0.0909,-3.272728 1.054152,-1.62677 2.464287,-3.756496 2.81818,-4.818182 0.127188,-0.537627 0.17348,-0.900714 0.272727,-1.363637 0.315877,-0.382624 0.585492,-0.815377 0.818182,-1.363637 0.654149,-1.541277 0.611866,-3.012616 -0.0909,-3.454545 0.04143,-0.621003 0.07266,-1.281772 0.0909,-1.818182 C 38.545458,39.572545 34.743708,36 30.000005,36 z"
       inkscape:connector-curvature="0"
       id="path3151"
       style="opacity:0.6;fill:#000000;fill-opacity:1;stroke:none" />
    <path
       d="m 57.000001,24 c -7.115551,0 -12.818183,5.358818 -12.818183,11.999998 0.01606,0.7072 0.06889,1.729415 0.136367,2.590911 -1.2168,0.51643 -1.305593,2.884584 -0.27273,5.31818 0.409584,0.965047 0.931247,1.706041 1.5,2.318184 0.138193,0.68394 0.101934,0.99099 0.272726,1.772727 0.476599,1.429793 2.355622,4.231998 4.090909,6.545456 0.170158,1.776697 0.346673,3.569671 0,5.590909 -5.000119,4.148385 -17.882799,5.932656 -17.863635,10.227271 L 31.772728,72 82.227272,72 81.954534,70.363636 C 81.934039,66.688023 69.029713,64.430979 64.090908,60.136365 63.891076,58.492382 63.852982,56.846501 63.954554,55.227273 65.535781,52.787118 67.650984,49.592529 68.181825,48 c 0.19078,-0.80644 0.260219,-1.351071 0.409088,-2.045456 0.473816,-0.573936 0.878238,-1.223065 1.227275,-2.045455 0.981222,-2.311916 0.917798,-4.518924 -0.136353,-5.181817 0.06215,-0.931505 0.108983,-1.922659 0.136353,-2.727274 C 69.818188,29.358818 64.115563,24 57.000007,24 z"
       inkscape:connector-curvature="0"
       id="path3159"
       style="fill:#000000;fill-opacity:1;stroke:none" />
    <path
       d="m 57,24 c -7.115551,0 -12.8125,5.35882 -12.8125,12 0.01606,0.7072 0.05752,1.732254 0.125,2.59375 -1.2168,0.51643 -1.314113,2.878904 -0.28125,5.3125 0.409584,0.965047 0.931247,1.700357 1.5,2.3125 0.138193,0.68394 0.110458,0.999513 0.28125,1.78125 0.476599,1.429793 2.358463,4.217792 4.09375,6.53125 0.170158,1.776697 0.346673,3.572512 0,5.59375 -1.789196,1.48442 -4.581986,2.67891 -7.4375,3.78125 -2.683621,-1.114687 -5.975381,-2.269353 -7.75,-3.8125 C 34.585529,58.997761 34.557284,57.891985 34.625,56.8125 35.679152,55.18573 37.114857,53.061686 37.46875,52 c 0.127188,-0.537627 0.150753,-0.912077 0.25,-1.375 0.315877,-0.382624 0.57981,-0.79549 0.8125,-1.34375 0.654149,-1.541277 0.640266,-3.026821 -0.0625,-3.46875 0.04143,-0.621003 0.04426,-1.27609 0.0625,-1.8125 -2e-6,-4.427454 -3.787547,-8 -8.53125,-8 -4.743701,0 -8.53125,3.572546 -8.53125,8 0.01071,0.471466 0.01752,1.144419 0.0625,1.71875 -0.8112,0.344286 -0.844825,1.940103 -0.15625,3.5625 0.273057,0.643365 0.620832,1.123155 1,1.53125 0.09213,0.45596 0.04239,0.666342 0.15625,1.1875 0.317732,0.953195 1.593142,2.832695 2.75,4.375 0.113439,1.184465 0.231115,2.371258 0,3.71875 -3.333414,2.76559 -11.919025,3.949423 -11.90625,6.8125 L 13.1875,68 33.5,68 c -0.904248,0.712414 -1.472685,1.49307 -1.46875,2.375 l -0.25,1.625 50.4375,0 -0.25,-1.625 c -0.02049,-3.675613 -12.936195,-5.955386 -17.875,-10.25 -0.199832,-1.643983 -0.226572,-3.287022 -0.125,-4.90625 1.581227,-2.440155 3.687909,-5.626221 4.21875,-7.21875 0.19078,-0.80644 0.257381,-1.336865 0.40625,-2.03125 0.473816,-0.573936 0.869713,-1.24011 1.21875,-2.0625 0.981222,-2.311916 0.929151,-4.524607 -0.125,-5.1875 C 69.74965,37.787245 69.78513,36.804615 69.8125,36 69.8125,29.35882 64.115556,24 57,24 z m 0,2.09375 c 6.045756,0 10.682679,4.423084 10.71875,9.84375 1.41e-4,0.02117 0,0.04129 0,0.0625 -0.02698,0.789557 -0.06721,1.72763 -0.125,2.59375 a 2.0839255,2.0839255 0 0 0 0.78125,1.75 c 0.0044,0.0254 0.05609,0.138312 0.0625,0.40625 0.01282,0.535876 -0.139221,1.420067 -0.53125,2.34375 -0.285757,0.673292 -0.573615,1.159578 -0.90625,1.5625 a 2.0839255,2.0839255 0 0 0 -0.4375,0.875 c -0.157179,0.733146 -0.228991,1.231112 -0.375,1.875 -0.153002,0.431647 -0.752792,1.583405 -1.5,2.8125 -0.763583,1.256031 -1.673547,2.647839 -2.46875,3.875 a 2.0839255,2.0839255 0 0 0 -0.34375,1 c -0.108516,1.729935 -0.06096,3.494284 0.15625,5.28125 a 2.0839255,2.0839255 0 0 0 0.6875,1.3125 c 3.010332,2.61768 7.575724,4.172697 11.375,5.71875 1.899638,0.773027 3.615515,1.525063 4.6875,2.1875 0.209234,0.129297 0.251314,0.196096 0.40625,0.3125 l -44.65625,0 c 0.09923,-0.115568 0.0021,-0.08597 0.25,-0.28125 A 2.0839255,2.0839255 0 0 0 33.5,65.90625 l -15.71875,0 c 0.393424,-0.17146 0.61273,-0.324491 1.0625,-0.5 2.484576,-0.969531 5.550418,-1.867924 7.78125,-3.71875 a 2.0839255,2.0839255 0 0 0 0.71875,-1.25 c 0.285496,-1.664557 0.112994,-3.070179 0,-4.25 A 2.0839255,2.0839255 0 0 0 26.9375,55.125 c -0.555192,-0.740173 -1.129669,-1.560182 -1.59375,-2.28125 -0.44526,-0.691825 -0.764379,-1.319447 -0.8125,-1.4375 -0.03042,-0.2249 7.63e-4,-0.377585 -0.125,-1 a 2.0839255,2.0839255 0 0 0 -0.5,-1 c -0.257297,-0.276927 -0.454977,-0.5369 -0.625,-0.9375 C 23.054705,47.934973 23.004574,47.442941 23,47.1875 a 2.0839255,2.0839255 0 0 0 0.59375,-1.625 C 23.558782,45.116012 23.57322,44.487686 23.5625,44 c 0,-0.02129 -2.37e-4,-0.04126 0,-0.0625 0.03583,-3.21037 2.764282,-5.84375 6.4375,-5.84375 3.67322,0 6.401668,2.633379 6.4375,5.84375 2.37e-4,0.02124 0,0.04121 0,0.0625 -0.01818,0.56841 -0.02839,1.176233 -0.0625,1.6875 a 2.0839255,2.0839255 0 0 0 0.5625,1.53125 c -0.0043,0.247911 -0.09197,0.730389 -0.3125,1.25 -0.158283,0.372944 -0.28984,0.589182 -0.5,0.84375 a 2.0839255,2.0839255 0 0 0 -0.4375,0.875 c -0.120808,0.56349 -0.147819,0.878623 -0.21875,1.21875 -0.06428,0.165503 -0.447086,0.89259 -0.9375,1.6875 -0.508151,0.823659 -1.119474,1.765396 -1.65625,2.59375 a 2.0839255,2.0839255 0 0 0 -0.34375,1 c -0.07555,1.204358 -0.02422,2.428626 0.125,3.65625 a 2.0839255,2.0839255 0 0 0 0.6875,1.3125 c 2.34903,2.042635 5.715565,3.108819 8.3125,4.1875 a 2.0839255,2.0839255 0 0 0 1.5625,0 c 2.901475,-1.120083 5.844756,-2.310959 8.03125,-4.125 a 2.0839255,2.0839255 0 0 0 0.71875,-1.25 c 0.401357,-2.340068 0.169824,-4.351794 0,-6.125 a 2.0839255,2.0839255 0 0 0 -0.40625,-1.0625 c -1.670355,-2.226891 -3.506413,-5.194843 -3.75,-5.875 -0.09847,-0.51493 -0.09204,-0.81196 -0.25,-1.59375 a 2.0839255,2.0839255 0 0 0 -0.5,-1 c -0.434847,-0.468022 -0.815291,-0.989024 -1.125,-1.71875 -0.412498,-0.971913 -0.557718,-1.932132 -0.53125,-2.46875 0.01192,-0.241744 0.04069,-0.277017 0.03125,-0.28125 A 2.0839255,2.0839255 0 0 0 46.375,38.4375 C 46.313943,37.658005 46.297384,36.670769 46.28125,36 c 0,-0.02121 -1.41e-4,-0.04133 0,-0.0625 0.03607,-5.420665 4.673,-9.84375 10.71875,-9.84375 z"
       inkscape:connector-curvature="0"
       id="path3941"
       style="opacity:0.1;fill:#000000;fill-opacity:1;stroke:none" />
    <path
       d="m 57,24 c -7.115551,0 -12.8125,5.35882 -12.8125,12 0.01606,0.7072 0.05752,1.732254 0.125,2.59375 -1.2168,0.51643 -1.314113,2.878904 -0.28125,5.3125 0.409584,0.965047 0.931247,1.700357 1.5,2.3125 0.138193,0.68394 0.110458,0.999513 0.28125,1.78125 0.476599,1.429793 2.358463,4.217792 4.09375,6.53125 0.170158,1.776697 0.346673,3.572512 0,5.59375 -1.789196,1.48442 -4.581986,2.67891 -7.4375,3.78125 -2.683621,-1.114687 -5.975381,-2.269353 -7.75,-3.8125 C 34.585529,58.997761 34.557284,57.891985 34.625,56.8125 35.679152,55.18573 37.114857,53.061686 37.46875,52 c 0.127188,-0.537627 0.150753,-0.912077 0.25,-1.375 0.315877,-0.382624 0.57981,-0.79549 0.8125,-1.34375 0.654149,-1.541277 0.640266,-3.026821 -0.0625,-3.46875 0.04143,-0.621003 0.04426,-1.27609 0.0625,-1.8125 -2e-6,-4.427454 -3.787547,-8 -8.53125,-8 -4.743701,0 -8.53125,3.572546 -8.53125,8 0.01071,0.471466 0.01752,1.144419 0.0625,1.71875 -0.8112,0.344286 -0.844825,1.940103 -0.15625,3.5625 0.273057,0.643365 0.620832,1.123155 1,1.53125 0.09213,0.45596 0.04239,0.666342 0.15625,1.1875 0.317732,0.953195 1.593142,2.832695 2.75,4.375 0.113439,1.184465 0.231115,2.371258 0,3.71875 -3.333414,2.76559 -11.919025,3.949423 -11.90625,6.8125 L 13.1875,68 33.5,68 c -0.904248,0.712414 -1.472685,1.49307 -1.46875,2.375 l -0.25,1.625 50.4375,0 -0.25,-1.625 c -0.02049,-3.675613 -12.936195,-5.955386 -17.875,-10.25 -0.199832,-1.643983 -0.226572,-3.287022 -0.125,-4.90625 1.581227,-2.440155 3.687909,-5.626221 4.21875,-7.21875 0.19078,-0.80644 0.257381,-1.336865 0.40625,-2.03125 0.473816,-0.573936 0.869713,-1.24011 1.21875,-2.0625 0.981222,-2.311916 0.929151,-4.524607 -0.125,-5.1875 C 69.74965,37.787245 69.78513,36.804615 69.8125,36 69.8125,29.35882 64.115556,24 57,24 z m 0,1.09375 c 6.55233,0 11.700684,4.876739 11.71875,10.875 3.2e-5,0.01056 0,0.02068 0,0.03125 -0.02717,0.797289 -0.06512,1.758779 -0.125,2.65625 a 1.098919,1.098919 0 0 0 0.5,1 c 0.06758,0.0425 0.295276,0.342686 0.3125,1.0625 0.01722,0.719814 -0.155124,1.716528 -0.59375,2.75 -0.315668,0.743766 -0.663133,1.328745 -1.0625,1.8125 A 1.098919,1.098919 0 0 0 67.53125,45.75 c -0.151196,0.705241 -0.214633,1.207005 -0.375,1.90625 -0.0081,0.03531 -0.02264,0.05736 -0.03125,0.09375 -0.215393,0.607366 -0.839185,1.727553 -1.59375,2.96875 -0.77639,1.277098 -1.706966,2.682437 -2.5,3.90625 A 1.098919,1.098919 0 0 0 62.875,55.15625 C 62.769766,56.833857 62.791,58.530618 63,60.25 a 1.098919,1.098919 0 0 0 0.375,0.71875 c 2.754651,2.39535 7.271047,3.975664 11.09375,5.53125 1.911351,0.777793 3.637042,1.523621 4.8125,2.25 0.587729,0.363189 1.029306,0.739438 1.28125,1.03125 0.251944,0.291812 0.311731,0.455725 0.3125,0.59375 a 1.098919,1.098919 0 0 0 0,0.15625 l 0.0625,0.375 -47.875,0 0.0625,-0.375 a 1.098919,1.098919 0 0 0 0,-0.15625 c -0.0018,-0.406902 0.288924,-0.890536 1.0625,-1.5 A 1.098919,1.098919 0 0 0 33.5,66.90625 l -19.03125,0 c -7.42e-4,-0.166275 0.183641,-0.498256 0.90625,-0.96875 0.722609,-0.470494 1.833286,-0.945642 3.09375,-1.4375 2.520927,-0.983716 5.535812,-1.932898 7.5,-3.5625 A 1.098919,1.098919 0 0 0 26.375,60.28125 c 0.259792,-1.51469 0.113204,-2.817984 0,-4 a 1.098919,1.098919 0 0 0 -0.21875,-0.5625 C 25.590075,54.963934 24.98256,54.12478 24.5,53.375 24.041414,52.66247 23.703652,52.041422 23.59375,51.75 c -0.0046,-0.02101 0.0038,-0.04262 0,-0.0625 -0.06858,-0.354652 -0.04231,-0.529831 -0.15625,-1.09375 a 1.098919,1.098919 0 0 0 -0.25,-0.53125 C 22.872598,49.723574 22.593724,49.359097 22.375,48.84375 22.083845,48.157741 21.984335,47.488069 22,47.0625 c 0.01175,-0.319177 0.065,-0.3871 0.03125,-0.375 A 1.098919,1.098919 0 0 0 22.625,45.625 C 22.58532,45.118399 22.5732,44.481758 22.5625,44 c -2.06e-4,-0.0093 2.07e-4,-0.02212 0,-0.03125 0.01798,-3.786295 3.257159,-6.875 7.4375,-6.875 4.180343,0 7.419517,3.088704 7.4375,6.875 5e-5,0.01057 0,0.02067 0,0.03125 -0.01828,0.555689 -0.02493,1.186934 -0.0625,1.75 a 1.098919,1.098919 0 0 0 0.46875,0.96875 c -0.009,0.0065 0.05769,0.125335 0.0625,0.4375 0.0064,0.41622 -0.09862,1.036306 -0.375,1.6875 -0.193453,0.45581 -0.396121,0.778654 -0.65625,1.09375 a 1.098919,1.098919 0 0 0 -0.21875,0.46875 c -0.108838,0.507658 -0.129431,0.839375 -0.21875,1.25 -0.0026,0.01179 -0.02857,0.01933 -0.03125,0.03125 -0.0029,0.0082 0.0033,0.0537 0,0.0625 -0.127153,0.342509 -0.533102,1.067555 -1.03125,1.875 -0.520809,0.844177 -1.155309,1.772471 -1.6875,2.59375 A 1.098919,1.098919 0 0 0 33.53125,56.75 c -0.07185,1.145334 -0.04791,2.303346 0.09375,3.46875 A 1.098919,1.098919 0 0 0 34,60.9375 c 2.077524,1.806542 5.424591,2.87305 8.0625,3.96875 a 1.098919,1.098919 0 0 0 0.8125,0.03125 c 2.879751,-1.111696 5.720046,-2.310511 7.71875,-3.96875 A 1.098919,1.098919 0 0 0 51,60.3125 c 0.37551,-2.189367 0.169982,-4.100144 0,-5.875 A 1.098919,1.098919 0 0 0 50.78125,53.875 C 49.081437,51.608835 47.228667,48.716884 46.875,47.6875 46.8729,47.6814 46.84573,47.66219 46.84375,47.65625 46.717846,47.037063 46.741961,46.733522 46.59375,46 a 1.098919,1.098919 0 0 0 -0.25,-0.53125 c -0.49814,-0.536143 -0.955583,-1.159045 -1.3125,-2 -0.461624,-1.087662 -0.630074,-2.138559 -0.59375,-2.875 0.03632,-0.736441 0.249098,-0.973091 0.3125,-1 A 1.098919,1.098919 0 0 0 45.40625,38.5 c -0.06412,-0.818572 -0.108934,-1.81221 -0.125,-2.5 -2e-4,-0.0086 1.93e-4,-0.02277 0,-0.03125 0.01807,-5.998261 5.166426,-10.875 11.71875,-10.875 z"
       inkscape:connector-curvature="0"
       id="path3932"
       style="opacity:0.2;fill:#000000;fill-opacity:1;stroke:none" />
  </g>
</svg>
