<?xml version="1.0" encoding="UTF-8" standalone="no"?>
<!-- Created with Inkscape (http://www.inkscape.org/) -->

<svg
   xmlns:dc="http://purl.org/dc/elements/1.1/"
   xmlns:cc="http://creativecommons.org/ns#"
   xmlns:rdf="http://www.w3.org/1999/02/22-rdf-syntax-ns#"
   xmlns:svg="http://www.w3.org/2000/svg"
   xmlns="http://www.w3.org/2000/svg"
   xmlns:xlink="http://www.w3.org/1999/xlink"
   xmlns:sodipodi="http://sodipodi.sourceforge.net/DTD/sodipodi-0.dtd"
   xmlns:inkscape="http://www.inkscape.org/namespaces/inkscape"
   width="16"
   height="16"
   id="svg5157"
   sodipodi:version="0.32"
   inkscape:version="0.48.4 r9939"
   version="1.0"
   sodipodi:docname="application-exit.svg"
   inkscape:output_extension="org.inkscape.output.svg.inkscape">
  <defs
     id="defs5159">
    <linearGradient
       inkscape:collect="always"
       id="linearGradient3173">
      <stop
         style="stop-color:#4d4d4d;stop-opacity:1;"
         offset="0"
         id="stop3175" />
      <stop
         style="stop-color:#4d4d4d;stop-opacity:0;"
         offset="1"
         id="stop3177" />
    </linearGradient>
    <linearGradient
       inkscape:collect="always"
       id="linearGradient3203">
      <stop
         style="stop-color:#4d4d4d;stop-opacity:1;"
         offset="0"
         id="stop3205" />
      <stop
         style="stop-color:#4d4d4d;stop-opacity:0;"
         offset="1"
         id="stop3207" />
    </linearGradient>
    <linearGradient
       inkscape:collect="always"
       id="linearGradient3195">
      <stop
         style="stop-color:#4d4d4d;stop-opacity:1;"
         offset="0"
         id="stop3197" />
      <stop
         style="stop-color:#4d4d4d;stop-opacity:0;"
         offset="1"
         id="stop3199" />
    </linearGradient>
    <linearGradient
       inkscape:collect="always"
       xlink:href="#linearGradient3195"
       id="linearGradient3201"
       x1="32.414055"
       y1="7.75"
       x2="32.434135"
       y2="40.614853"
       gradientUnits="userSpaceOnUse" />
    <linearGradient
       inkscape:collect="always"
       xlink:href="#linearGradient3203"
       id="linearGradient3209"
       x1="32.569359"
       y1="5.3041172"
       x2="32.623116"
       y2="40.747845"
       gradientUnits="userSpaceOnUse" />
    <linearGradient
       inkscape:collect="always"
       xlink:href="#linearGradient3173"
       id="linearGradient3179"
       x1="31.749998"
       y1="4.5625019"
       x2="31.749998"
       y2="33.087414"
       gradientUnits="userSpaceOnUse" />
  </defs>
  <sodipodi:namedview
     id="base"
     pagecolor="#ffffff"
     bordercolor="#666666"
     borderopacity="1.0"
     gridtolerance="10000"
     guidetolerance="10"
     objecttolerance="10"
     inkscape:pageopacity="0.0"
     inkscape:pageshadow="2"
     inkscape:zoom="29.875"
     inkscape:cx="9.1860896"
     inkscape:cy="8"
     inkscape:document-units="px"
     inkscape:current-layer="layer2"
     width="48px"
     height="48px"
     inkscape:window-width="872"
     inkscape:window-height="680"
     inkscape:window-x="146"
     inkscape:window-y="44"
     showborder="true"
     inkscape:showpageshadow="false"
     showgrid="false"
     showguides="true"
     inkscape:guide-bbox="true"
     inkscape:grid-points="true"
     inkscape:window-maximized="0">
    <inkscape:grid
       id="GridFromPre046Settings"
       type="xygrid"
       originx="0px"
       originy="0px"
       spacingx="0.5px"
       spacingy="0.5px"
       color="#0000ff"
       empcolor="#0000ff"
       opacity="0.2"
       empopacity="0.4"
       empspacing="2"
       visible="true"
       enabled="true"
       snapvisiblegridlinesonly="true" />
  </sodipodi:namedview>
  <metadata
     id="metadata5162">
    <rdf:RDF>
      <cc:Work
         rdf:about="">
        <dc:format>image/svg+xml</dc:format>
        <dc:type
           rdf:resource="http://purl.org/dc/dcmitype/StillImage" />
        <dc:title />
        <dc:date>2007-08-27</dc:date>
        <dc:creator>
          <cc:Agent>
            <dc:title>Lapo Calamandrei</dc:title>
          </cc:Agent>
        </dc:creator>
        <dc:source />
        <cc:license
           rdf:resource="http://creativecommons.org/licenses/GPL/2.0/" />
        <dc:contributor>
          <cc:Agent>
            <dc:title>Kalle Persson</dc:title>
          </cc:Agent>
        </dc:contributor>
        <dc:subject>
          <rdf:Bag>
            <rdf:li>logout</rdf:li>
            <rdf:li>exit</rdf:li>
            <rdf:li>man</rdf:li>
            <rdf:li>sign</rdf:li>
            <rdf:li>running</rdf:li>
          </rdf:Bag>
        </dc:subject>
      </cc:Work>
      <cc:License
         rdf:about="http://creativecommons.org/licenses/GPL/2.0/">
        <cc:permits
           rdf:resource="http://web.resource.org/cc/Reproduction" />
        <cc:permits
           rdf:resource="http://web.resource.org/cc/Distribution" />
        <cc:requires
           rdf:resource="http://web.resource.org/cc/Notice" />
        <cc:permits
           rdf:resource="http://web.resource.org/cc/DerivativeWorks" />
        <cc:requires
           rdf:resource="http://web.resource.org/cc/ShareAlike" />
        <cc:requires
           rdf:resource="http://web.resource.org/cc/SourceCode" />
      </cc:License>
    </rdf:RDF>
  </metadata>
  <g
     inkscape:label="shadow"
     inkscape:groupmode="layer"
     id="layer1"
     style="display:inline"
     transform="translate(0,-32)">
    <g
       id="g6227"
       transform="matrix(0.6759778,0,0,0.8422279,-72.059226,25.879981)"
       style="opacity:0.33000004" />
  </g>
  <g
     inkscape:groupmode="layer"
     id="layer2"
     inkscape:label="omino"
     transform="translate(0,-32)">
    <path
       style="opacity:0.14999999999999999;fill:#ffffff;stroke:#ffffff;stroke-width:2;stroke-linecap:round;stroke-linejoin:round;stroke-miterlimit:4;stroke-opacity:1;stroke-dasharray:none;display:inline;fill-opacity:1"
       d="m 10.662855,34.166725 c -0.735993,0 -1.33332,0.597327 -1.33332,1.33332 0,0.735993 0.597327,1.33332 1.33332,1.33332 0.735993,0 1.33332,-0.597327 1.33332,-1.33332 0,-0.735993 -0.597327,-1.33332 -1.33332,-1.33332 z m -4.395789,1.99998 c -0.180408,0.01757 -0.345888,0.107828 -0.458329,0.249997 l -1.33332,1.66665 c -0.230117,0.287646 -0.18348,0.707375 0.104165,0.937491 0.287646,0.230116 0.707375,0.18348 0.937491,-0.104166 l 1.135405,-1.416652 1.260404,0 -2.145811,2.604141 c -0.07782,0.111026 -0.106449,0.2499 -0.104166,0.395829 l 0,2.33331 -2.66664,0 0,1.33332 3.3333,0 c 0.368171,-3.7e-5 0.666623,-0.298489 0.66666,-0.66666 l 0,-2.062479 1.66665,1.66665 0,2.729139 1.33332,0 0,-2.99997 0,-0.281247 -0.197915,-0.187498 -1.583317,-1.583318 1.114572,-1.354153 0,0.406246 c 3.7e-5,0.368171 0.298489,0.666623 0.66666,0.66666 l 2.33331,0 c 0.240422,0.0034 0.462124,-0.125667 0.583327,-0.33333 0.121204,-0.207663 0.121204,-0.458997 0,-0.66666 -0.121203,-0.207663 -0.342905,-0.33673 -0.583327,-0.33333 l -1.66665,0 0,-1.499985 c -0.963536,0 -1.781184,-0.629698 -2.062479,-1.499985 l -2.270811,0 c -0.02082,-9.67e-4 -0.04168,-9.67e-4 -0.0625,0 z"
       id="path5955-4"
       inkscape:connector-curvature="0" />
    <path
       id="path5955"
       d="m 10.662855,34.166725 c -0.735993,0 -1.33332,0.597327 -1.33332,1.33332 0,0.735993 0.597327,1.33332 1.33332,1.33332 0.735993,0 1.33332,-0.597327 1.33332,-1.33332 0,-0.735993 -0.597327,-1.33332 -1.33332,-1.33332 z m -4.395789,1.99998 c -0.180408,0.01757 -0.345888,0.107828 -0.458329,0.249997 l -1.33332,1.66665 c -0.230117,0.287646 -0.18348,0.707375 0.104165,0.937491 0.287646,0.230116 0.707375,0.18348 0.937491,-0.104166 l 1.135405,-1.416652 1.260404,0 -2.145811,2.604141 c -0.07782,0.111026 -0.106449,0.2499 -0.104166,0.395829 l 0,2.33331 -2.66664,0 0,1.33332 3.3333,0 c 0.368171,-3.7e-5 0.666623,-0.298489 0.66666,-0.66666 l 0,-2.062479 1.66665,1.66665 0,2.729139 1.33332,0 0,-2.99997 0,-0.281247 -0.197915,-0.187498 -1.583317,-1.583318 1.114572,-1.354153 0,0.406246 c 3.7e-5,0.368171 0.298489,0.666623 0.66666,0.66666 l 2.33331,0 c 0.240422,0.0034 0.462124,-0.125667 0.583327,-0.33333 0.121204,-0.207663 0.121204,-0.458997 0,-0.66666 -0.121203,-0.207663 -0.342905,-0.33673 -0.583327,-0.33333 l -1.66665,0 0,-1.499985 c -0.963536,0 -1.781184,-0.629698 -2.062479,-1.499985 l -2.270811,0 c -0.02082,-9.77e-4 -0.04168,-9.77e-4 -0.0625,0 z"
       style="opacity:0.80;fill:#000000;fill-opacity:1;fill-rule:evenodd;stroke:none;stroke-width:0.33333001000000001;stroke-linecap:round;stroke-linejoin:round;stroke-miterlimit:4;stroke-opacity:1;stroke-dasharray:none;display:inline"
       inkscape:connector-curvature="0" />
  </g>
</svg>
