<?xml version="1.0" encoding="UTF-8" standalone="no"?>
<!-- Created with Inkscape (http://www.inkscape.org/) -->

<svg
   xmlns:dc="http://purl.org/dc/elements/1.1/"
   xmlns:cc="http://creativecommons.org/ns#"
   xmlns:rdf="http://www.w3.org/1999/02/22-rdf-syntax-ns#"
   xmlns:svg="http://www.w3.org/2000/svg"
   xmlns="http://www.w3.org/2000/svg"
   xmlns:xlink="http://www.w3.org/1999/xlink"
   xmlns:sodipodi="http://sodipodi.sourceforge.net/DTD/sodipodi-0.dtd"
   xmlns:inkscape="http://www.inkscape.org/namespaces/inkscape"
   sodipodi:docname="emblem-camera.svg"
   inkscape:version="0.48.4 r9939"
   sodipodi:version="0.32"
   id="svg7631"
   height="48px"
   width="48px"
   inkscape:output_extension="org.inkscape.output.svg.inkscape"
   version="1.1">
  <defs
     id="defs3">
    <linearGradient
       inkscape:collect="always"
       id="linearGradient3349">
      <stop
         style="stop-color:#4d4d4d;stop-opacity:1;"
         offset="0"
         id="stop3351" />
      <stop
         style="stop-color:#4d4d4d;stop-opacity:0;"
         offset="1"
         id="stop3353" />
    </linearGradient>
    <linearGradient
       inkscape:collect="always"
       xlink:href="#linearGradient3349"
       id="linearGradient3355"
       x1="11.341619"
       y1="10.838417"
       x2="11.46258"
       y2="37.491051"
       gradientUnits="userSpaceOnUse" />
  </defs>
  <sodipodi:namedview
     inkscape:guide-bbox="true"
     showguides="true"
     fill="#555753"
     inkscape:window-y="0"
     inkscape:window-x="171"
     inkscape:window-height="731"
     inkscape:window-width="847"
     inkscape:showpageshadow="false"
     inkscape:document-units="px"
     inkscape:grid-bbox="true"
     showgrid="false"
     inkscape:current-layer="layer1"
     inkscape:cy="31.743717"
     inkscape:cx="39.064369"
     inkscape:zoom="5.6568542"
     inkscape:pageshadow="2"
     inkscape:pageopacity="0.0"
     borderopacity="0.20392157"
     bordercolor="#666666"
     pagecolor="#ffffff"
     id="base"
     inkscape:window-maximized="0" />
  <metadata
     id="metadata4">
    <rdf:RDF>
      <cc:Work
         rdf:about="">
        <dc:format>image/svg+xml</dc:format>
        <dc:type
           rdf:resource="http://purl.org/dc/dcmitype/StillImage" />
        <dc:creator>
          <cc:Agent>
            <dc:title>Jakub Steiner</dc:title>
          </cc:Agent>
        </dc:creator>
        <dc:source>http://jimmac.musichall.cz</dc:source>
        <dc:title>Photo Camera</dc:title>
        <dc:subject>
          <rdf:Bag>
            <rdf:li>camera</rdf:li>
            <rdf:li>photo</rdf:li>
            <rdf:li>SLR</rdf:li>
          </rdf:Bag>
        </dc:subject>
        <cc:license
           rdf:resource="http://creativecommons.org/licenses/by-sa/2.0/" />
      </cc:Work>
      <cc:License
         rdf:about="http://creativecommons.org/licenses/by-sa/2.0/">
        <cc:permits
           rdf:resource="http://web.resource.org/cc/Reproduction" />
        <cc:permits
           rdf:resource="http://web.resource.org/cc/Distribution" />
        <cc:requires
           rdf:resource="http://web.resource.org/cc/Notice" />
        <cc:requires
           rdf:resource="http://web.resource.org/cc/Attribution" />
        <cc:permits
           rdf:resource="http://web.resource.org/cc/DerivativeWorks" />
        <cc:requires
           rdf:resource="http://web.resource.org/cc/ShareAlike" />
      </cc:License>
    </rdf:RDF>
  </metadata>
  <g
     inkscape:groupmode="layer"
     inkscape:label="Layer 1"
     id="layer1">
    <g
       id="g2567"
       inkscape:label="Livello 1"
       transform="matrix(0.8627165,0,0,0.8627165,-33.246329,-29.791887)">
      <path
         sodipodi:nodetypes="ccccsscccccccccccccsccccccccccssssssc"
         id="path1373"
         d="M 46.449172,47.09607 C 45.720497,47.123584 45.141742,47.719543 45.141742,48.455186 L 45.141742,49.938965 L 44.7708,49.938965 C 44.747259,49.938965 44.724262,49.938374 44.700866,49.938965 C 44.689353,49.939252 44.678899,49.938532 44.667421,49.938965 C 43.209831,49.993758 42.052566,51.188768 42.052566,52.660237 L 42.052566,75.278726 C 42.052566,76.785321 43.264205,78 44.7708,78 L 88.037516,78 C 89.544111,78 90.75575,76.785321 90.755748,75.278726 L 90.755748,52.660237 C 90.755748,51.153642 89.54411,49.938965 88.037516,49.938965 L 55.655891,49.938965 L 55.655891,48.455186 C 55.655891,47.701889 55.050071,47.09607 54.296775,47.09607 L 46.503901,47.09607 C 46.486244,47.09607 46.46666,47.09541 46.449172,47.09607 z M 80.545654,51.830173 C 80.550678,51.829734 80.555799,51.830491 80.560857,51.830173 C 80.574017,51.829342 80.587008,51.830173 80.600383,51.830173 L 87.399005,51.830173 C 87.741413,51.830173 88.019274,52.104992 88.019274,52.447399 L 88.019274,55.84063 C 88.019274,56.183035 87.741413,56.460897 87.399005,56.460897 L 80.600383,56.460897 C 80.257977,56.460897 79.983156,56.183038 79.983156,55.84063 L 79.983156,52.447399 C 79.983156,52.123509 80.229186,51.85781 80.545654,51.830173 z M 66.148753,54.080163 C 66.1697,54.079634 66.191625,54.080561 66.212604,54.080163 C 66.233666,54.079764 66.255361,54.080431 66.276455,54.080163 C 66.318975,54.079625 66.361511,54.080163 66.404158,54.080163 C 71.862906,54.080163 76.291956,58.512253 76.291956,63.971001 C 76.291956,69.42975 71.862904,73.858799 66.404158,73.858799 C 60.945412,73.858799 56.51636,69.42975 56.51636,63.971001 C 56.51636,58.597132 60.8072,54.21503 66.148753,54.080163 z"
         style="fill:#000000;fill-opacity:1;fill-rule:nonzero;stroke:none;stroke-width:1;stroke-linecap:butt;stroke-linejoin:miter;stroke-miterlimit:4;stroke-dasharray:none;stroke-dashoffset:0;stroke-opacity:1" />
      <path
         sodipodi:type="arc"
         style="fill:#000000;fill-opacity:1;fill-rule:nonzero;stroke:none;stroke-width:1;stroke-linecap:butt;stroke-linejoin:miter;stroke-miterlimit:4;stroke-dasharray:none;stroke-dashoffset:0;stroke-opacity:1"
         id="path3061"
         sodipodi:cx="-102.90819"
         sodipodi:cy="243.93053"
         sodipodi:rx="101.63772"
         sodipodi:ry="101.63772"
         d="m -1.2704697,243.93053 c 0,56.13296 -45.5047563,101.63771 -101.6377203,101.63771 -56.13296,0 -101.63772,-45.50475 -101.63772,-101.63771 0,-56.13297 45.50476,-101.63772 101.63772,-101.63772 56.132964,0 101.6377203,45.50475 101.6377203,101.63772 z"
         transform="matrix(6.2634975e-2,0,0,6.2634975e-2,72.849807,48.691008)" />
    </g>
  </g>
</svg>
