<?xml version="1.0" encoding="UTF-8" standalone="no"?>
<!-- Created with Inkscape (http://www.inkscape.org/) -->

<svg
   xmlns:dc="http://purl.org/dc/elements/1.1/"
   xmlns:cc="http://creativecommons.org/ns#"
   xmlns:rdf="http://www.w3.org/1999/02/22-rdf-syntax-ns#"
   xmlns:svg="http://www.w3.org/2000/svg"
   xmlns="http://www.w3.org/2000/svg"
   xmlns:xlink="http://www.w3.org/1999/xlink"
   xmlns:sodipodi="http://sodipodi.sourceforge.net/DTD/sodipodi-0.dtd"
   xmlns:inkscape="http://www.inkscape.org/namespaces/inkscape"
   version="1.0"
   width="48"
   height="48"
   id="svg2"
   inkscape:version="0.48.4 r9939"
   sodipodi:docname="emblem-shared.svg">
  <sodipodi:namedview
     pagecolor="#ffffff"
     bordercolor="#666666"
     borderopacity="1"
     objecttolerance="10"
     gridtolerance="10"
     guidetolerance="10"
     inkscape:pageopacity="0"
     inkscape:pageshadow="2"
     inkscape:window-width="781"
     inkscape:window-height="480"
     id="namedview50"
     showgrid="true"
     inkscape:zoom="5.1666667"
     inkscape:cx="24"
     inkscape:cy="24"
     inkscape:window-x="523"
     inkscape:window-y="109"
     inkscape:window-maximized="0"
     inkscape:current-layer="svg2">
    <inkscape:grid
       type="xygrid"
       id="grid3022"
       empspacing="6"
       visible="true"
       enabled="true"
       snapvisiblegridlinesonly="true"
       spacingx="6px"
       spacingy="6px" />
  </sodipodi:namedview>
  <defs
     id="defs4">
    <linearGradient
       id="linearGradient3810">
      <stop
         style="stop-color:#ffffff;stop-opacity:1;"
         offset="0"
         id="stop3812" />
      <stop
         style="stop-color:#ffffff;stop-opacity:0.58823532;"
         offset="1"
         id="stop3814" />
    </linearGradient>
    <linearGradient
       id="linearGradient3796">
      <stop
         style="stop-color:#ffffff;stop-opacity:1;"
         offset="0"
         id="stop3798" />
      <stop
         style="stop-color:#ffffff;stop-opacity:0.6;"
         offset="1"
         id="stop3800" />
    </linearGradient>
    <linearGradient
       x1="11.640054"
       y1="4.0775533"
       x2="11.640054"
       y2="17.924156"
       id="linearGradient3972"
       gradientUnits="userSpaceOnUse">
      <stop
         id="stop3974"
         style="stop-color:#323232;stop-opacity:1"
         offset="0" />
      <stop
         id="stop3976"
         style="stop-color:#787878;stop-opacity:1"
         offset="1" />
    </linearGradient>
    <linearGradient
       x1="11.640054"
       y1="4.0775533"
       x2="11.640054"
       y2="17.924156"
       id="linearGradient2862"
       xlink:href="#linearGradient3972"
       gradientUnits="userSpaceOnUse"
       gradientTransform="matrix(4,0,0,4,4,-70)" />
    <clipPath
       id="clipPath3647">
      <path
         d="m -100,-74 0,96 96,0 0,-96 -96,0 z m 39.875,20.3125 16.125,0 0,19.75 19.6875,0 0,16.1875 -19.6875,0 0,19.4375 -16.125,0 0,-19.4375 -19.5625,0 0,-16.1875 19.5625,0 0,-19.75 z"
         inkscape:connector-curvature="0"
         id="path3649"
         style="opacity:0.3;color:#000000;fill:#ff0000;fill-opacity:1;fill-rule:nonzero;stroke:none;stroke-width:4;marker:none;visibility:visible;display:inline;overflow:visible;enable-background:accumulate" />
    </clipPath>
    <filter
       color-interpolation-filters="sRGB"
       id="filter3651">
      <feGaussianBlur
         id="feGaussianBlur3653"
         stdDeviation="0.83069354" />
    </filter>
    <clipPath
       id="clipPath3266">
      <path
         d="M 0,0 0,96 96,96 96,0 0,0 z m 12,6 72,0 c 3.324,0 6,2.676 6,6 l 0,72 c 0,3.324 -2.676,6 -6,6 L 12,90 C 8.676,90 6,87.324 6,84 L 6,12 C 6,8.676 8.676,6 12,6 z"
         inkscape:connector-curvature="0"
         id="path3268"
         style="opacity:0.3;color:#000000;fill:#ff0000;fill-opacity:1;fill-rule:nonzero;stroke:none;stroke-width:4;marker:none;visibility:visible;display:inline;overflow:visible;enable-background:accumulate" />
    </clipPath>
    <linearGradient
       x1="32.251034"
       y1="6.1317081"
       x2="32.251034"
       y2="90.238609"
       id="linearGradient3101"
       xlink:href="#ButtonShadow-0"
       gradientUnits="userSpaceOnUse"
       gradientTransform="matrix(1.0238095,0,0,1.0119048,-1.1428571,-98.071429)" />
    <linearGradient
       x1="45.447727"
       y1="92.539597"
       x2="45.447727"
       y2="7.0165396"
       id="ButtonShadow-0"
       gradientUnits="userSpaceOnUse"
       gradientTransform="matrix(1.0058652,0,0,0.994169,100,0)">
      <stop
         id="stop3750-8"
         style="stop-color:#000000;stop-opacity:1"
         offset="0" />
      <stop
         id="stop3752-5"
         style="stop-color:#000000;stop-opacity:0.58823532"
         offset="1" />
    </linearGradient>
    <linearGradient
       x1="32.251034"
       y1="6.1317081"
       x2="32.251034"
       y2="90.238609"
       id="linearGradient3780"
       xlink:href="#ButtonShadow-0"
       gradientUnits="userSpaceOnUse"
       gradientTransform="matrix(1.0238095,0,0,1.0119048,-1.1428571,-98.071429)" />
    <linearGradient
       x1="32.251034"
       y1="6.1317081"
       x2="32.251034"
       y2="90.238609"
       id="linearGradient3772"
       xlink:href="#ButtonShadow-0"
       gradientUnits="userSpaceOnUse"
       gradientTransform="matrix(1.0238095,0,0,1.0119048,-1.1428571,-98.071429)" />
    <linearGradient
       x1="32.251034"
       y1="6.1317081"
       x2="32.251034"
       y2="90.238609"
       id="linearGradient3725"
       xlink:href="#ButtonShadow-0"
       gradientUnits="userSpaceOnUse"
       gradientTransform="matrix(1.0238095,0,0,1.0119048,-1.1428571,-98.071429)" />
    <linearGradient
       x1="48"
       y1="90"
       x2="48"
       y2="5.9877172"
       id="linearGradient3052"
       xlink:href="#ButtonColor-6"
       gradientUnits="userSpaceOnUse" />
    <linearGradient
       x1="10.31979"
       y1="21"
       x2="10.31979"
       y2="0.99929649"
       id="ButtonColor-6"
       gradientUnits="userSpaceOnUse">
      <stop
         id="stop3189-4"
         style="stop-color:#c8c8c8;stop-opacity:1"
         offset="0" />
      <stop
         id="stop3191-0"
         style="stop-color:#e6e6e6;stop-opacity:1"
         offset="1" />
    </linearGradient>
    <linearGradient
       x1="36.357143"
       y1="6"
       x2="36.357143"
       y2="63.893143"
       id="linearGradient3188"
       xlink:href="#linearGradient3737"
       gradientUnits="userSpaceOnUse" />
    <linearGradient
       id="linearGradient3737">
      <stop
         id="stop3739"
         style="stop-color:#ffffff;stop-opacity:1"
         offset="0" />
      <stop
         id="stop3741"
         style="stop-color:#ffffff;stop-opacity:0"
         offset="1" />
    </linearGradient>
    <radialGradient
       cx="48"
       cy="90.171875"
       r="42"
       fx="48"
       fy="90.171875"
       id="radialGradient3619"
       xlink:href="#linearGradient3737"
       gradientUnits="userSpaceOnUse"
       gradientTransform="matrix(1.1573129,0,0,0.99590774,-7.551021,0.1971319)" />
    <linearGradient
       x1="32.251034"
       y1="6.1317081"
       x2="32.251034"
       y2="90.238609"
       id="linearGradient4256"
       xlink:href="#ButtonShadow-0"
       gradientUnits="userSpaceOnUse"
       gradientTransform="translate(0,-97)" />
    <linearGradient
       inkscape:collect="always"
       xlink:href="#linearGradient3972"
       id="linearGradient3027"
       gradientUnits="userSpaceOnUse"
       gradientTransform="matrix(4,0,0,4,4,-70)"
       x1="11.640054"
       y1="4.0775533"
       x2="11.640054"
       y2="17.924156" />
    <radialGradient
       inkscape:collect="always"
       xlink:href="#linearGradient3887"
       id="radialGradient3893"
       cx="63.457626"
       cy="58.983051"
       fx="63.457626"
       fy="58.983051"
       r="45.966103"
       gradientUnits="userSpaceOnUse" />
    <linearGradient
       id="linearGradient3887">
      <stop
         style="stop-color:#fafafa;stop-opacity:1;"
         offset="0"
         id="stop3889" />
      <stop
         style="stop-color:#dcdcdc;stop-opacity:0.19685039;"
         offset="1"
         id="stop3891" />
    </linearGradient>
    <radialGradient
       r="45.966103"
       fy="58.983051"
       fx="63.457626"
       cy="58.983051"
       cx="63.457626"
       gradientUnits="userSpaceOnUse"
       id="radialGradient3961"
       xlink:href="#linearGradient3887"
       inkscape:collect="always" />
    <radialGradient
       inkscape:collect="always"
       xlink:href="#linearGradient3887-5"
       id="radialGradient4065"
       cx="48"
       cy="48"
       fx="48"
       fy="48"
       r="47.796612"
       gradientTransform="matrix(1,0,0,1.0085107,0,-0.40851121)"
       gradientUnits="userSpaceOnUse" />
    <linearGradient
       id="linearGradient3887-5">
      <stop
         style="stop-color:#fafafa;stop-opacity:1;"
         offset="0"
         id="stop3889-4" />
      <stop
         style="stop-color:#dcdcdc;stop-opacity:0.19685039;"
         offset="1"
         id="stop3891-9" />
    </linearGradient>
    <radialGradient
       r="47.796612"
       fy="48"
       fx="48"
       cy="48"
       cx="48"
       gradientTransform="matrix(1,0,0,1.0085107,0,-0.40851118)"
       gradientUnits="userSpaceOnUse"
       id="radialGradient4446"
       xlink:href="#linearGradient3887-5"
       inkscape:collect="always" />
    <radialGradient
       inkscape:collect="always"
       xlink:href="#linearGradient3796"
       id="radialGradient3802"
       cx="18"
       cy="12"
       fx="18"
       fy="12"
       r="36"
       gradientUnits="userSpaceOnUse" />
    <radialGradient
       inkscape:collect="always"
       xlink:href="#linearGradient3810"
       id="radialGradient3816"
       cx="54"
       cy="48"
       fx="54"
       fy="48"
       r="36"
       gradientUnits="userSpaceOnUse" />
    <clipPath
       id="clipPath2986">
      <path
         d="m -100,-74 0,96 96,0 0,-96 -96,0 z m 48,16 c 17.673112,0 32,14.326888 32,32 0,17.673112 -14.326888,32 -32,32 -17.673112,0 -32,-14.326888 -32,-32 0,-17.673112 14.326888,-32 32,-32 z m 0,8 c -13.254834,0 -24,10.745166 -24,24 0,13.254832 10.745166,24 24,24 13.254832,0 24,-10.745168 24,-24 0,-13.254834 -10.745168,-24 -24,-24 z m 0,4 c 2.216,0 4,1.784 4,4 l 0,9 7.875,-4.5 c 1.919112,-1.108 4.392,-0.419112 5.5,1.5 1.108,1.919112 0.419112,4.392 -1.5,5.5 l -7.75,4.5 7.75,4.5 c 1.919112,1.108 2.608,3.580888 1.5,5.5 -1.108,1.919112 -3.580888,2.608 -5.5,1.5 L -48,-19 l 0,9 c 0,2.216 -1.784,4 -4,4 -2.216,0 -4,-1.784 -4,-4 l 0,-9 -7.875,4.5 c -1.919112,1.108 -4.392,0.419112 -5.5,-1.5 -1.108,-1.919112 -0.419112,-4.392 1.5,-5.5 l 7.75,-4.5 -7.75,-4.5 c -1.919112,-1.108 -2.608,-3.580888 -1.5,-5.5 1.108,-1.919112 3.580888,-2.608 5.5,-1.5 l 7.875,4.5 0,-9 c 0,-2.216 1.784,-4 4,-4 z"
         inkscape:connector-curvature="0"
         id="path2988"
         style="opacity:0.3;color:#000000;fill:#ff0000;fill-opacity:1;fill-rule:nonzero;stroke:none;stroke-width:4;marker:none;visibility:visible;display:inline;overflow:visible;enable-background:accumulate" />
    </clipPath>
    <filter
       color-interpolation-filters="sRGB"
       id="filter3762">
      <feGaussianBlur
         id="feGaussianBlur3764"
         stdDeviation="0.96" />
    </filter>
    <filter
       color-interpolation-filters="sRGB"
       id="filter3986">
      <feGaussianBlur
         id="feGaussianBlur3988"
         stdDeviation="0.87773437" />
    </filter>
  </defs>
  <metadata
     id="metadata7">
    <rdf:RDF>
      <cc:Work
         rdf:about="">
        <dc:format>image/svg+xml</dc:format>
        <dc:type
           rdf:resource="http://purl.org/dc/dcmitype/StillImage" />
        <dc:title />
      </cc:Work>
    </rdf:RDF>
  </metadata>
  <g
     inkscape:label="Calque 1"
     inkscape:groupmode="layer"
     id="layer1">
    <path
       style="color:#000000;fill:#000000;fill-opacity:1;fill-rule:evenodd;stroke:none;stroke-width:1;marker:none;visibility:visible;display:inline;overflow:visible;enable-background:accumulate"
       id="path3984-0-3-4-7"
       inkscape:connector-curvature="0"
       d="m 31.703153,43.498528 c -1.600162,-0.03272 -3.201298,-0.567333 -4.507982,-1.628341 -4.202256,-3.412184 -0.938319,-6.95736 -4.602828,-9.932892 -3.664505,-2.975536 -6.911481,0.580965 -11.11374,-2.831216 l 0,-0.0052 c -0.933344,-0.757866 -1.6068263,-1.696304 -2.0140852,-2.710403 -0.00278,-0.0066 -0.00289,-0.01433 -0.00556,-0.02102 -0.082011,-0.206228 -0.1520982,-0.413253 -0.2120084,-0.625073 -0.026589,-0.09404 -0.055889,-0.188738 -0.078111,-0.283647 -0.00244,-0.0104 -0.00322,-0.02114 -0.00556,-0.03153 -0.045811,-0.200174 -0.0797,-0.401125 -0.1060003,-0.604062 -2.311e-4,-0.0017 2.145e-4,-0.0035 0,-0.0053 -0.00133,-0.01062 -0.00422,-0.02094 -0.00556,-0.03152 -0.0117,-0.09452 -0.020456,-0.188756 -0.0279,-0.283646 -0.00567,-0.07135 -0.013456,-0.143938 -0.016733,-0.215362 -0.00156,-0.03635 -0.00456,-0.07393 -0.00556,-0.110307 -3.577e-4,-0.01212 2.856e-4,-0.02465 0,-0.03677 -0.002,-0.0952 -0.00211,-0.188388 0,-0.283647 9.445e-4,-0.04873 0.00344,-0.09839 0.00556,-0.147077 0.00344,-0.07142 0.011,-0.144015 0.016733,-0.215361 0.00844,-0.105679 0.019733,-0.209813 0.033489,-0.315162 2.155e-4,-0.0016 -2.311e-4,-0.0035 0,-0.0052 0.0263,-0.20294 0.0602,-0.403889 0.1060003,-0.604064 0.00244,-0.01051 0.00322,-0.02106 0.00556,-0.03151 0.022556,-0.09549 0.051056,-0.188913 0.078111,-0.283647 0.059911,-0.211819 0.1299925,-0.418844 0.2120094,-0.625073 0.00278,-0.0067 0.00289,-0.01427 0.00556,-0.02102 0.4072578,-1.014099 1.0807407,-1.952537 2.0140857,-2.710404 l 0,-0.0052 c 4.202257,-3.412181 7.449235,0.14432 11.113738,-2.831216 3.664509,-2.975532 0.400573,-6.5207075 4.602831,-9.9328922 2.986722,-2.425228 7.494553,-2.1081341 10.070449,0.7038016 2.575897,2.8119356 2.24467,7.0559886 -0.742032,9.4811576 -4.202257,3.412179 -7.449231,-0.14957 -11.113738,2.825963 -1.851165,1.503125 -1.932262,3.155464 -2.103355,4.858765 0.171093,1.7033 0.25219,3.355639 2.103355,4.858764 3.664507,2.975534 6.911481,-0.586217 11.113738,2.825963 2.986702,2.425135 3.317929,6.669187 0.742032,9.481124 -1.448939,1.581714 -3.505096,2.37428 -5.562448,2.332207 z" />
  </g>
</svg>
