<?xml version="1.0" encoding="UTF-8" standalone="no"?>
<!-- Created with Inkscape (http://www.inkscape.org/) -->

<svg
   xmlns:dc="http://purl.org/dc/elements/1.1/"
   xmlns:cc="http://creativecommons.org/ns#"
   xmlns:rdf="http://www.w3.org/1999/02/22-rdf-syntax-ns#"
   xmlns:svg="http://www.w3.org/2000/svg"
   xmlns="http://www.w3.org/2000/svg"
   xmlns:xlink="http://www.w3.org/1999/xlink"
   xmlns:sodipodi="http://sodipodi.sourceforge.net/DTD/sodipodi-0.dtd"
   xmlns:inkscape="http://www.inkscape.org/namespaces/inkscape"
   width="32"
   height="32"
   id="svg5157"
   sodipodi:version="0.32"
   inkscape:version="0.48.4 r9939"
   version="1.0"
   sodipodi:docname="application-exit.svg"
   inkscape:output_extension="org.inkscape.output.svg.inkscape">
  <defs
     id="defs5159">
    <linearGradient
       inkscape:collect="always"
       id="linearGradient3173">
      <stop
         style="stop-color:#4d4d4d;stop-opacity:1;"
         offset="0"
         id="stop3175" />
      <stop
         style="stop-color:#4d4d4d;stop-opacity:0;"
         offset="1"
         id="stop3177" />
    </linearGradient>
    <linearGradient
       inkscape:collect="always"
       id="linearGradient3203">
      <stop
         style="stop-color:#4d4d4d;stop-opacity:1;"
         offset="0"
         id="stop3205" />
      <stop
         style="stop-color:#4d4d4d;stop-opacity:0;"
         offset="1"
         id="stop3207" />
    </linearGradient>
    <linearGradient
       inkscape:collect="always"
       id="linearGradient3195">
      <stop
         style="stop-color:#4d4d4d;stop-opacity:1;"
         offset="0"
         id="stop3197" />
      <stop
         style="stop-color:#4d4d4d;stop-opacity:0;"
         offset="1"
         id="stop3199" />
    </linearGradient>
    <linearGradient
       inkscape:collect="always"
       xlink:href="#linearGradient3195"
       id="linearGradient3201"
       x1="32.414055"
       y1="7.75"
       x2="32.434135"
       y2="40.614853"
       gradientUnits="userSpaceOnUse" />
    <linearGradient
       inkscape:collect="always"
       xlink:href="#linearGradient3203"
       id="linearGradient3209"
       x1="32.569359"
       y1="5.3041172"
       x2="32.623116"
       y2="40.747845"
       gradientUnits="userSpaceOnUse" />
    <linearGradient
       inkscape:collect="always"
       xlink:href="#linearGradient3173"
       id="linearGradient3179"
       x1="31.749998"
       y1="4.5625019"
       x2="31.749998"
       y2="33.087414"
       gradientUnits="userSpaceOnUse" />
  </defs>
  <sodipodi:namedview
     id="base"
     pagecolor="#ffffff"
     bordercolor="#666666"
     borderopacity="1.0"
     gridtolerance="10000"
     guidetolerance="10"
     objecttolerance="10"
     inkscape:pageopacity="0.0"
     inkscape:pageshadow="2"
     inkscape:zoom="11.78125"
     inkscape:cx="16"
     inkscape:cy="16"
     inkscape:document-units="px"
     inkscape:current-layer="layer2"
     width="48px"
     height="48px"
     inkscape:window-width="872"
     inkscape:window-height="680"
     inkscape:window-x="146"
     inkscape:window-y="44"
     showborder="false"
     inkscape:showpageshadow="false"
     showgrid="false"
     showguides="true"
     inkscape:guide-bbox="true"
     inkscape:grid-points="true"
     inkscape:window-maximized="0">
    <inkscape:grid
       id="GridFromPre046Settings"
       type="xygrid"
       originx="0px"
       originy="0px"
       spacingx="0.5px"
       spacingy="0.5px"
       color="#0000ff"
       empcolor="#0000ff"
       opacity="0.2"
       empopacity="0.4"
       empspacing="2"
       visible="true"
       enabled="true"
       snapvisiblegridlinesonly="true" />
  </sodipodi:namedview>
  <metadata
     id="metadata5162">
    <rdf:RDF>
      <cc:Work
         rdf:about="">
        <dc:format>image/svg+xml</dc:format>
        <dc:type
           rdf:resource="http://purl.org/dc/dcmitype/StillImage" />
        <dc:title />
        <dc:date>2007-08-27</dc:date>
        <dc:creator>
          <cc:Agent>
            <dc:title>Lapo Calamandrei</dc:title>
          </cc:Agent>
        </dc:creator>
        <dc:source />
        <cc:license
           rdf:resource="http://creativecommons.org/licenses/GPL/2.0/" />
        <dc:contributor>
          <cc:Agent>
            <dc:title>Kalle Persson</dc:title>
          </cc:Agent>
        </dc:contributor>
        <dc:subject>
          <rdf:Bag>
            <rdf:li>logout</rdf:li>
            <rdf:li>exit</rdf:li>
            <rdf:li>man</rdf:li>
            <rdf:li>sign</rdf:li>
            <rdf:li>running</rdf:li>
          </rdf:Bag>
        </dc:subject>
      </cc:Work>
      <cc:License
         rdf:about="http://creativecommons.org/licenses/GPL/2.0/">
        <cc:permits
           rdf:resource="http://web.resource.org/cc/Reproduction" />
        <cc:permits
           rdf:resource="http://web.resource.org/cc/Distribution" />
        <cc:requires
           rdf:resource="http://web.resource.org/cc/Notice" />
        <cc:permits
           rdf:resource="http://web.resource.org/cc/DerivativeWorks" />
        <cc:requires
           rdf:resource="http://web.resource.org/cc/ShareAlike" />
        <cc:requires
           rdf:resource="http://web.resource.org/cc/SourceCode" />
      </cc:License>
    </rdf:RDF>
  </metadata>
  <g
     inkscape:label="shadow"
     inkscape:groupmode="layer"
     id="layer1"
     style="display:inline"
     transform="translate(0,-16)">
    <g
       id="g6227"
       transform="matrix(0.6759778,0,0,0.8422279,-72.059226,25.879981)"
       style="opacity:0.33000004" />
  </g>
  <g
     inkscape:groupmode="layer"
     id="layer2"
     inkscape:label="omino"
     transform="translate(0,-16)">
    <path
       style="opacity:0.14999999999999999;fill:#ffffff;stroke:#ffffff;stroke-width:2;stroke-linecap:round;stroke-linejoin:round;stroke-miterlimit:4;stroke-opacity:1;stroke-dasharray:none;display:inline;fill-opacity:1"
       d="m 21.32571,20.33345 c -1.471985,0 -2.66664,1.194655 -2.66664,2.66664 0,1.471985 1.194655,2.66664 2.66664,2.66664 1.471985,0 2.66664,-1.194655 2.66664,-2.66664 0,-1.471985 -1.194655,-2.66664 -2.66664,-2.66664 z m -8.791579,3.99996 c -0.360815,0.03513 -0.691774,0.215655 -0.916657,0.499995 l -2.6666398,3.3333 c -0.460233,0.575291 -0.36696,1.414749 0.208331,1.874981 0.575291,0.460233 1.4147488,0.36696 1.8749808,-0.208331 l 2.270811,-2.833305 2.520808,0 -4.291624,5.208281 c -0.155628,0.222053 -0.212898,0.499802 -0.208331,0.791659 l 0,4.66662 -5.3332798,0 0,2.66664 6.6665998,0 c 0.736342,-7.3e-5 1.333247,-0.596978 1.33332,-1.33332 l 0,-4.124959 3.3333,3.3333 0,5.458279 2.66664,0 0,-5.99994 0,-0.562494 -0.395829,-0.374997 -3.166635,-3.166635 2.229144,-2.708306 0,0.812492 c 7.3e-5,0.736342 0.596978,1.333247 1.33332,1.33332 l 4.66662,0 c 0.480843,0.0068 0.924249,-0.251334 1.166655,-0.66666 0.242406,-0.415325 0.242406,-0.917994 0,-1.33332 -0.242406,-0.415327 -0.685812,-0.673461 -1.166655,-0.66666 l -3.3333,0 0,-2.99997 c -1.927073,0 -3.562367,-1.259397 -4.124959,-2.99997 l -4.541621,0 c -0.04165,-0.0019 -0.08336,-0.0019 -0.124999,0 z"
       id="path5955-4"
       inkscape:connector-curvature="0" />
    <path
       id="path5955"
       d="m 21.32571,20.33345 c -1.471985,0 -2.66664,1.194655 -2.66664,2.66664 0,1.471985 1.194655,2.66664 2.66664,2.66664 1.471985,0 2.66664,-1.194655 2.66664,-2.66664 0,-1.471985 -1.194655,-2.66664 -2.66664,-2.66664 z m -8.791579,3.99996 c -0.360815,0.03513 -0.691774,0.215655 -0.916657,0.499995 l -2.6666398,3.3333 c -0.460233,0.575291 -0.36696,1.414749 0.208331,1.874981 0.575291,0.460233 1.4147488,0.36696 1.8749808,-0.208331 l 2.270811,-2.833305 2.520808,0 -4.291624,5.208281 c -0.155628,0.222053 -0.212898,0.499802 -0.208331,0.791659 l 0,4.66662 -5.3332798,0 0,2.66664 6.6665998,0 c 0.736342,-7.3e-5 1.333247,-0.596978 1.33332,-1.33332 l 0,-4.124959 3.3333,3.3333 0,5.458279 2.66664,0 0,-5.99994 0,-0.562494 -0.395829,-0.374997 -3.166635,-3.166635 2.229144,-2.708306 0,0.812492 c 7.3e-5,0.736342 0.596978,1.333247 1.33332,1.33332 l 4.66662,0 c 0.480843,0.0068 0.924249,-0.251334 1.166655,-0.66666 0.242406,-0.415325 0.242406,-0.917994 0,-1.33332 -0.242406,-0.415327 -0.685812,-0.673461 -1.166655,-0.66666 l -3.3333,0 0,-2.99997 c -1.927073,0 -3.562367,-1.259397 -4.124959,-2.99997 l -4.541621,0 c -0.04164,-0.002 -0.08336,-0.002 -0.124999,0 z"
       style="opacity:0.80;fill:#000000;fill-opacity:1;fill-rule:evenodd;stroke:none;stroke-width:0.33333001000000001;stroke-linecap:round;stroke-linejoin:round;stroke-miterlimit:4;stroke-opacity:1;stroke-dasharray:none;display:inline"
       inkscape:connector-curvature="0" />
  </g>
</svg>
